<?xml version="1.0" encoding="UTF-8"?>
<svg xmlns="http://www.w3.org/2000/svg"
     xmlns:xlink="http://www.w3.org/1999/xlink"
     version="1.2"
     width="101.6mm" height="101.6mm" viewBox="0 0 101.6 101.6"
     stroke="none"
     fill="#000000"
     stroke-width="0.3"
     font-size="3.88"
>
<g stroke-width="0.3" stroke="#BBBBBB" id="fig-d58c8ca34abf45c099870a22545ade63-element-1">
  <path fill="none" d="M55.24,64.99 L 56.29 65.7"/>
  <path fill="none" d="M55.94,64.48 L 56.29 65.7"/>
  <path fill="none" d="M51.75,59.38 L 56.29 65.7"/>
  <path fill="none" d="M39.66,56.46 L 38.4 56.65"/>
  <path fill="none" d="M39.48,57.31 L 38.4 56.65"/>
  <path fill="none" d="M51.75,59.38 L 38.4 56.65"/>
  <path fill="none" d="M48.56,56.35 L 47.35 55.96"/>
  <path fill="none" d="M48.02,57.04 L 47.35 55.96"/>
  <path fill="none" d="M51.75,59.38 L 47.35 55.96"/>
  <path fill="none" d="M59.35,59.31 L 60.51 58.8"/>
  <path fill="none" d="M59.29,58.44 L 60.51 58.8"/>
  <path fill="none" d="M51.75,59.38 L 60.51 58.8"/>
  <path fill="none" d="M41.89,64.59 L 42.42 63.43"/>
  <path fill="none" d="M41.27,63.98 L 42.42 63.43"/>
  <path fill="none" d="M39.09,66.81 L 42.42 63.43"/>
  <path fill="none" d="M34.48,62.43 L 33.28 62.01"/>
  <path fill="none" d="M33.92,63.1 L 33.28 62.01"/>
  <path fill="none" d="M39.09,66.81 L 33.28 62.01"/>
  <path fill="none" d="M36.49,56.93 L 35.72 55.92"/>
  <path fill="none" d="M35.66,57.19 L 35.72 55.92"/>
  <path fill="none" d="M39.09,66.81 L 35.72 55.92"/>
  <path fill="none" d="M35.19,77.19 L 35.22 78.46"/>
  <path fill="none" d="M36.01,77.46 L 35.22 78.46"/>
  <path fill="none" d="M39.09,66.81 L 35.22 78.46"/>
  <path fill="none" d="M44.6,67.2 L 45.79 66.75"/>
  <path fill="none" d="M44.59,66.33 L 45.79 66.75"/>
  <path fill="none" d="M39.09,66.81 L 45.79 66.75"/>
  <path fill="none" d="M47.6,65.92 L 48.72 65.3"/>
  <path fill="none" d="M47.47,65.06 L 48.72 65.3"/>
  <path fill="none" d="M39.09,66.81 L 48.72 65.3"/>
  <path fill="none" d="M63.25,80.31 L 61.99 80.5"/>
  <path fill="none" d="M63.07,81.16 L 61.99 80.5"/>
  <path fill="none" d="M69.84,82.11 L 61.99 80.5"/>
  <path fill="none" d="M70,75.63 L 69.52 74.45"/>
  <path fill="none" d="M69.14,75.66 L 69.52 74.45"/>
  <path fill="none" d="M69.84,82.11 L 69.52 74.45"/>
  <path fill="none" d="M40.36,64.9 L 39.83 66.06"/>
  <path fill="none" d="M40.98,65.51 L 39.83 66.06"/>
  <path fill="none" d="M43.16,62.68 L 39.83 66.06"/>
  <path fill="none" d="M40,52.39 L 39.19 51.41"/>
  <path fill="none" d="M39.18,52.68 L 39.19 51.41"/>
  <path fill="none" d="M43.16,62.68 L 39.19 51.41"/>
  <path fill="none" d="M32.19,62.08 L 30.99 62.5"/>
  <path fill="none" d="M32.18,62.95 L 30.99 62.5"/>
  <path fill="none" d="M43.16,62.68 L 30.99 62.5"/>
  <path fill="none" d="M45.98,57.54 L 46.07 56.28"/>
  <path fill="none" d="M45.18,57.19 L 46.07 56.28"/>
  <path fill="none" d="M43.16,62.68 L 46.07 56.28"/>
  <path fill="none" d="M55.14,69.72 L 56.4 69.91"/>
  <path fill="none" d="M55.56,68.96 L 56.4 69.91"/>
  <path fill="none" d="M43.16,62.68 L 56.4 69.91"/>
  <path fill="none" d="M37.68,79.29 L 38.32 80.38"/>
  <path fill="none" d="M38.54,79.13 L 38.32 80.38"/>
  <path fill="none" d="M37.29,74.7 L 38.32 80.38"/>
  <path fill="none" d="M51.43,76.95 L 52.67 76.67"/>
  <path fill="none" d="M51.54,76.09 L 52.67 76.67"/>
  <path fill="none" d="M37.29,74.7 L 52.67 76.67"/>
  <path fill="none" d="M29.62,64.81 L 28.52 64.17"/>
  <path fill="none" d="M28.95,65.36 L 28.52 64.17"/>
  <path fill="none" d="M37.29,74.7 L 28.52 64.17"/>
  <path fill="none" d="M28.81,72.75 L 27.56 72.97"/>
  <path fill="none" d="M28.66,73.6 L 27.56 72.97"/>
  <path fill="none" d="M37.29,74.7 L 27.56 72.97"/>
  <path fill="none" d="M66.95,22.4 L 66.72 23.65"/>
  <path fill="none" d="M67.7,22.84 L 66.72 23.65"/>
  <path fill="none" d="M70.84,16.63 L 66.72 23.65"/>
  <path fill="none" d="M48.31,44.61 L 48.81 43.44"/>
  <path fill="none" d="M47.68,44.02 L 48.81 43.44"/>
  <path fill="none" d="M40.41,52.47 L 48.81 43.44"/>
  <path fill="none" d="M32.86,63.82 L 32.6 65.07"/>
  <path fill="none" d="M33.6,64.28 L 32.6 65.07"/>
  <path fill="none" d="M40.41,52.47 L 32.6 65.07"/>
  <path fill="none" d="M44.24,50.27 L 44.96 49.22"/>
  <path fill="none" d="M43.74,49.56 L 44.96 49.22"/>
  <path fill="none" d="M40.41,52.47 L 44.96 49.22"/>
  <path fill="none" d="M42.17,58.07 L 43.02 59.01"/>
  <path fill="none" d="M42.98,57.74 L 43.02 59.01"/>
  <path fill="none" d="M40.41,52.47 L 43.02 59.01"/>
  <path fill="none" d="M38.19,45.73 L 37.35 44.78"/>
  <path fill="none" d="M37.38,46.05 L 37.35 44.78"/>
  <path fill="none" d="M40.41,52.47 L 37.35 44.78"/>
  <path fill="none" d="M45.03,58.37 L 44.29 59.4"/>
  <path fill="none" d="M45.52,59.09 L 44.29 59.4"/>
  <path fill="none" d="M54.81,52.28 L 44.29 59.4"/>
  <path fill="none" d="M59.9,61.37 L 60.9 62.16"/>
  <path fill="none" d="M60.64,60.92 L 60.9 62.16"/>
  <path fill="none" d="M54.81,52.28 L 60.9 62.16"/>
  <path fill="none" d="M52.84,40.46 L 52.18 39.37"/>
  <path fill="none" d="M51.99,40.63 L 52.18 39.37"/>
  <path fill="none" d="M54.81,52.28 L 52.18 39.37"/>
  <path fill="none" d="M44.06,57 L 44.74 58.07"/>
  <path fill="none" d="M44.91,56.81 L 44.74 58.07"/>
  <path fill="none" d="M42.4,47.51 L 44.74 58.07"/>
  <path fill="none" d="M51.25,47.97 L 52.45 47.54"/>
  <path fill="none" d="M51.25,47.1 L 52.45 47.54"/>
  <path fill="none" d="M42.4,47.51 L 52.45 47.54"/>
  <path fill="none" d="M33.46,45.37 L 32.21 45.58"/>
  <path fill="none" d="M33.3,46.22 L 32.21 45.58"/>
  <path fill="none" d="M42.4,47.51 L 32.21 45.58"/>
  <path fill="none" d="M27.19,46.85 L 26.32 45.93"/>
  <path fill="none" d="M26.39,47.2 L 26.32 45.93"/>
  <path fill="none" d="M29.49,53.33 L 26.32 45.93"/>
  <path fill="none" d="M31.27,59.37 L 32.09 60.34"/>
  <path fill="none" d="M32.09,59.07 L 32.09 60.34"/>
  <path fill="none" d="M29.49,53.33 L 32.09 60.34"/>
  <path fill="none" d="M36.82,51.5 L 37.83 50.73"/>
  <path fill="none" d="M36.56,50.67 L 37.83 50.73"/>
  <path fill="none" d="M29.49,53.33 L 37.83 50.73"/>
  <path fill="none" d="M29.39,60.25 L 29.88 61.43"/>
  <path fill="none" d="M30.26,60.21 L 29.88 61.43"/>
  <path fill="none" d="M29.49,53.33 L 29.88 61.43"/>
  <path fill="none" d="M38.6,83.72 L 38.35 82.47"/>
  <path fill="none" d="M37.74,83.59 L 38.35 82.47"/>
  <path fill="none" d="M36.72,93.13 L 38.35 82.47"/>
  <path fill="none" d="M26.5,65.22 L 27.07 64.08"/>
  <path fill="none" d="M25.91,64.59 L 27.07 64.08"/>
  <path fill="none" d="M20.27,70.52 L 27.07 64.08"/>
  <path fill="none" d="M24.25,72.42 L 25.52 72.42"/>
  <path fill="none" d="M24.55,71.61 L 25.52 72.42"/>
  <path fill="none" d="M20.27,70.52 L 25.52 72.42"/>
  <path fill="none" d="M38.12,76.83 L 37.48 75.74"/>
  <path fill="none" d="M37.26,76.99 L 37.48 75.74"/>
  <path fill="none" d="M38.51,81.43 L 37.48 75.74"/>
  <path fill="none" d="M36.63,90.84 L 36.88 92.09"/>
  <path fill="none" d="M37.49,90.97 L 36.88 92.09"/>
  <path fill="none" d="M38.51,81.43 L 36.88 92.09"/>
  <path fill="none" d="M41.83,76.57 L 42.05 75.32"/>
  <path fill="none" d="M41.08,76.13 L 42.05 75.32"/>
  <path fill="none" d="M38.51,81.43 L 42.05 75.32"/>
  <path fill="none" d="M45.2,87.88 L 46.39 88.35"/>
  <path fill="none" d="M45.78,87.23 L 46.39 88.35"/>
  <path fill="none" d="M38.51,81.43 L 46.39 88.35"/>
  <path fill="none" d="M41,78.5 L 41.3 77.27"/>
  <path fill="none" d="M40.28,78.02 L 41.3 77.27"/>
  <path fill="none" d="M38.51,81.43 L 41.3 77.27"/>
  <path fill="none" d="M35.07,66.15 L 34.35 65.1"/>
  <path fill="none" d="M34.22,66.37 L 34.35 65.1"/>
  <path fill="none" d="M38.51,81.43 L 34.35 65.1"/>
  <path fill="none" d="M34.8,86.06 L 34.48 87.29"/>
  <path fill="none" d="M35.51,86.55 L 34.48 87.29"/>
  <path fill="none" d="M38.51,81.43 L 34.48 87.29"/>
  <path fill="none" d="M29.52,43.78 L 30.56 44.51"/>
  <path fill="none" d="M30.23,43.28 L 30.56 44.51"/>
  <path fill="none" d="M24.17,35.34 L 30.56 44.51"/>
  <path fill="none" d="M70.07,18.79 L 70.3 17.54"/>
  <path fill="none" d="M69.32,18.35 L 70.3 17.54"/>
  <path fill="none" d="M66.19,24.56 L 70.3 17.54"/>
  <path fill="none" d="M57.4,30.22 L 56.67 31.27"/>
  <path fill="none" d="M57.9,30.93 L 56.67 31.27"/>
  <path fill="none" d="M66.19,24.56 L 56.67 31.27"/>
  <path fill="none" d="M73.94,17 L 74.45 15.84"/>
  <path fill="none" d="M73.31,16.41 L 74.45 15.84"/>
  <path fill="none" d="M66.19,24.56 L 74.45 15.84"/>
  <path fill="none" d="M60.23,35.51 L 60.08 36.77"/>
  <path fill="none" d="M61.01,35.9 L 60.08 36.77"/>
  <path fill="none" d="M66.19,24.56 L 60.08 36.77"/>
  <path fill="none" d="M67.55,82.08 L 68.8 81.9"/>
  <path fill="none" d="M67.72,81.23 L 68.8 81.9"/>
  <path fill="none" d="M60.95,80.29 L 68.8 81.9"/>
  <path fill="none" d="M55.93,77.39 L 54.67 77.26"/>
  <path fill="none" d="M55.56,78.17 L 54.67 77.26"/>
  <path fill="none" d="M60.95,80.29 L 54.67 77.26"/>
  <path fill="none" d="M53.32,73.56 L 52.12 73.15"/>
  <path fill="none" d="M52.77,74.24 L 52.12 73.15"/>
  <path fill="none" d="M60.95,80.29 L 52.12 73.15"/>
  <path fill="none" d="M39.33,49.87 L 38.11 50.23"/>
  <path fill="none" d="M39.28,50.74 L 38.11 50.23"/>
  <path fill="none" d="M51.69,51.1 L 38.11 50.23"/>
  <path fill="none" d="M52.87,49.75 L 53.02 48.49"/>
  <path fill="none" d="M52.09,49.35 L 53.02 48.49"/>
  <path fill="none" d="M51.69,51.1 L 53.02 48.49"/>
  <path fill="none" d="M59.52,57.69 L 60.73 58.08"/>
  <path fill="none" d="M60.05,57.01 L 60.73 58.08"/>
  <path fill="none" d="M51.69,51.1 L 60.73 58.08"/>
  <path fill="none" d="M43.31,49.62 L 42.63 48.55"/>
  <path fill="none" d="M42.47,49.81 L 42.63 48.55"/>
  <path fill="none" d="M44.97,59.1 L 42.63 48.55"/>
  <path fill="none" d="M42.5,72.11 L 42.74 73.36"/>
  <path fill="none" d="M43.36,72.24 L 42.74 73.36"/>
  <path fill="none" d="M44.97,59.1 L 42.74 73.36"/>
  <path fill="none" d="M45.6,59.12 L 44.45 58.58"/>
  <path fill="none" d="M44.99,59.73 L 44.45 58.58"/>
  <path fill="none" d="M44.97,59.1 L 44.45 58.58"/>
  <path fill="none" d="M46.07,50.89 L 45.73 49.66"/>
  <path fill="none" d="M45.21,50.82 L 45.73 49.66"/>
  <path fill="none" d="M44.97,59.1 L 45.73 49.66"/>
  <path fill="none" d="M56.65,54.49 L 57.46 55.47"/>
  <path fill="none" d="M57.46,54.2 L 57.46 55.47"/>
  <path fill="none" d="M53.61,44.76 L 57.46 55.47"/>
  <path fill="none" d="M47.66,38.91 L 46.48 38.44"/>
  <path fill="none" d="M47.08,39.56 L 46.48 38.44"/>
  <path fill="none" d="M53.61,44.76 L 46.48 38.44"/>
  <path fill="none" d="M47.65,47.22 L 46.77 48.14"/>
  <path fill="none" d="M48.03,48 L 46.77 48.14"/>
  <path fill="none" d="M53.61,44.76 L 46.77 48.14"/>
  <path fill="none" d="M41.5,57.2 L 42.77 57.35"/>
  <path fill="none" d="M41.9,56.42 L 42.77 57.35"/>
  <path fill="none" d="M31.7,51.74 L 42.77 57.35"/>
  <path fill="none" d="M25.25,49.31 L 23.98 49.37"/>
  <path fill="none" d="M24.99,50.14 L 23.98 49.37"/>
  <path fill="none" d="M31.7,51.74 L 23.98 49.37"/>
  <path fill="none" d="M51.69,78.56 L 52.58 79.47"/>
  <path fill="none" d="M52.49,78.21 L 52.58 79.47"/>
  <path fill="none" d="M49.22,71.96 L 52.58 79.47"/>
  <path fill="none" d="M55.31,68.21 L 56.04 67.17"/>
  <path fill="none" d="M54.81,67.5 L 56.04 67.17"/>
  <path fill="none" d="M49.22,71.96 L 56.04 67.17"/>
  <path fill="none" d="M43.59,74.85 L 42.8 75.84"/>
  <path fill="none" d="M44.04,75.59 L 42.8 75.84"/>
  <path fill="none" d="M49.22,71.96 L 42.8 75.84"/>
  <path fill="none" d="M44.79,61.83 L 43.87 60.95"/>
  <path fill="none" d="M44,62.21 L 43.87 60.95"/>
  <path fill="none" d="M49.22,71.96 L 43.87 60.95"/>
  <path fill="none" d="M59.29,58.23 L 58.33 57.39"/>
  <path fill="none" d="M58.53,58.65 L 58.33 57.39"/>
  <path fill="none" d="M65,69.47 L 58.33 57.39"/>
  <path fill="none" d="M55.37,75.21 L 54.6 76.23"/>
  <path fill="none" d="M55.84,75.94 L 54.6 76.23"/>
  <path fill="none" d="M65,69.47 L 54.6 76.23"/>
  <path fill="none" d="M72.65,73.27 L 73.92 73.34"/>
  <path fill="none" d="M72.99,72.47 L 73.92 73.34"/>
  <path fill="none" d="M65,69.47 L 73.92 73.34"/>
  <path fill="none" d="M68.44,68.65 L 69.4 67.82"/>
  <path fill="none" d="M68.13,67.83 L 69.4 67.82"/>
  <path fill="none" d="M65,69.47 L 69.4 67.82"/>
  <path fill="none" d="M35.64,48.36 L 36.57 49.22"/>
  <path fill="none" d="M36.42,47.96 L 36.57 49.22"/>
  <path fill="none" d="M31.51,39.33 L 36.57 49.22"/>
  <path fill="none" d="M54.78,46.73 L 53.96 45.76"/>
  <path fill="none" d="M53.96,47.03 L 53.96 45.76"/>
  <path fill="none" d="M57.82,56.46 L 53.96 45.76"/>
  <path fill="none" d="M63.53,67.71 L 64.49 68.55"/>
  <path fill="none" d="M64.29,67.29 L 64.49 68.55"/>
  <path fill="none" d="M57.82,56.46 L 64.49 68.55"/>
  <path fill="none" d="M54.24,53.93 L 52.98 53.72"/>
  <path fill="none" d="M53.81,54.69 L 52.98 53.72"/>
  <path fill="none" d="M57.82,56.46 L 52.98 53.72"/>
  <path fill="none" d="M65.01,58.42 L 66.26 58.24"/>
  <path fill="none" d="M65.18,57.57 L 66.26 58.24"/>
  <path fill="none" d="M57.82,56.46 L 66.26 58.24"/>
  <path fill="none" d="M45.81,54.99 L 44.59 55.32"/>
  <path fill="none" d="M45.74,55.85 L 44.59 55.32"/>
  <path fill="none" d="M57.82,56.46 L 44.59 55.32"/>
  <path fill="none" d="M51.63,43.59 L 52.81 44.06"/>
  <path fill="none" d="M52.21,42.94 L 52.81 44.06"/>
  <path fill="none" d="M45.68,37.74 L 52.81 44.06"/>
  <path fill="none" d="M37.99,48.07 L 37.66 49.29"/>
  <path fill="none" d="M38.7,48.56 L 37.66 49.29"/>
  <path fill="none" d="M45.68,37.74 L 37.66 49.29"/>
  <path fill="none" d="M54.08,33.38 L 54.89 32.41"/>
  <path fill="none" d="M53.64,32.63 L 54.89 32.41"/>
  <path fill="none" d="M45.68,37.74 L 54.89 32.41"/>
  <path fill="none" d="M38.35,35.04 L 37.08 35.1"/>
  <path fill="none" d="M38.09,35.87 L 37.08 35.1"/>
  <path fill="none" d="M45.68,37.74 L 37.08 35.1"/>
  <path fill="none" d="M50.58,51.45 L 51.54 52.27"/>
  <path fill="none" d="M51.34,51.02 L 51.54 52.27"/>
  <path fill="none" d="M46.34,43.02 L 51.54 52.27"/>
  <path fill="none" d="M39.16,43.18 L 38.01 43.71"/>
  <path fill="none" d="M39.23,44.05 L 38.01 43.71"/>
  <path fill="none" d="M46.34,43.02 L 38.01 43.71"/>
  <path fill="none" d="M49.67,40.38 L 49.79 41.64"/>
  <path fill="none" d="M50.51,40.6 L 49.79 41.64"/>
  <path fill="none" d="M52.4,31.51 L 49.79 41.64"/>
  <path fill="none" d="M28.2,51.44 L 29.07 52.36"/>
  <path fill="none" d="M29,51.09 L 29.07 52.36"/>
  <path fill="none" d="M25.9,44.95 L 29.07 52.36"/>
  <path fill="none" d="M19.54,44.76 L 18.37 45.23"/>
  <path fill="none" d="M19.58,45.62 L 18.37 45.23"/>
  <path fill="none" d="M25.9,44.95 L 18.37 45.23"/>
  <path fill="none" d="M23.92,46.98 L 23.58 48.2"/>
  <path fill="none" d="M24.63,47.48 L 23.58 48.2"/>
  <path fill="none" d="M25.9,44.95 L 23.58 48.2"/>
  <path fill="none" d="M28.89,45.63 L 30.11 45.29"/>
  <path fill="none" d="M28.96,44.76 L 30.11 45.29"/>
  <path fill="none" d="M25.9,44.95 L 30.11 45.29"/>
  <path fill="none" d="M34.76,44.46 L 35.9 43.91"/>
  <path fill="none" d="M34.67,43.6 L 35.9 43.91"/>
  <path fill="none" d="M25.9,44.95 L 35.9 43.91"/>
  <path fill="none" d="M39.57,74.55 L 38.34 74.83"/>
  <path fill="none" d="M39.46,75.41 L 38.34 74.83"/>
  <path fill="none" d="M53.72,76.81 L 38.34 74.83"/>
  <path fill="none" d="M58.74,79.7 L 60 79.83"/>
  <path fill="none" d="M59.11,78.92 L 60 79.83"/>
  <path fill="none" d="M53.72,76.81 L 60 79.83"/>
  <path fill="none" d="M63.35,71.06 L 64.11 70.05"/>
  <path fill="none" d="M62.87,70.34 L 64.11 70.05"/>
  <path fill="none" d="M53.72,76.81 L 64.11 70.05"/>
  <path fill="none" d="M18.32,58.64 L 17.23 59.3"/>
  <path fill="none" d="M18.48,59.5 L 17.23 59.3"/>
  <path fill="none" d="M26.56,57.47 L 17.23 59.3"/>
  <path fill="none" d="M41.12,60.09 L 42.37 59.84"/>
  <path fill="none" d="M41.25,59.23 L 42.37 59.84"/>
  <path fill="none" d="M26.56,57.47 L 42.37 59.84"/>
  <path fill="none" d="M24.25,50.96 L 23.38 50.04"/>
  <path fill="none" d="M23.45,51.3 L 23.38 50.04"/>
  <path fill="none" d="M26.56,57.47 L 23.38 50.04"/>
  <path fill="none" d="M41.63,50.53 L 41.13 51.7"/>
  <path fill="none" d="M42.26,51.12 L 41.13 51.7"/>
  <path fill="none" d="M49.53,42.67 L 41.13 51.7"/>
  <path fill="none" d="M52.26,33.8 L 52.14 32.53"/>
  <path fill="none" d="M51.42,33.58 L 52.14 32.53"/>
  <path fill="none" d="M49.53,42.67 L 52.14 32.53"/>
  <path fill="none" d="M46.61,53.02 L 46.76 54.29"/>
  <path fill="none" d="M47.46,53.23 L 46.76 54.29"/>
  <path fill="none" d="M49.53,42.67 L 46.76 54.29"/>
  <path fill="none" d="M55.05,34.04 L 55.28 32.79"/>
  <path fill="none" d="M54.3,33.6 L 55.28 32.79"/>
  <path fill="none" d="M49.53,42.67 L 55.28 32.79"/>
  <path fill="none" d="M47.96,50.19 L 48.21 51.44"/>
  <path fill="none" d="M48.82,50.32 L 48.21 51.44"/>
  <path fill="none" d="M49.53,42.67 L 48.21 51.44"/>
  <path fill="none" d="M34.78,49.92 L 36.05 49.85"/>
  <path fill="none" d="M35.03,49.09 L 36.05 49.85"/>
  <path fill="none" d="M29.67,47.91 L 36.05 49.85"/>
  <path fill="none" d="M35.53,55.05 L 36.66 55.65"/>
  <path fill="none" d="M36.18,54.47 L 36.66 55.65"/>
  <path fill="none" d="M29.67,47.91 L 36.66 55.65"/>
  <path fill="none" d="M25.26,43.82 L 24.06 43.41"/>
  <path fill="none" d="M24.72,44.49 L 24.06 43.41"/>
  <path fill="none" d="M29.67,47.91 L 24.06 43.41"/>
  <path fill="none" d="M76.43,13.15 L 75.91 14.31"/>
  <path fill="none" d="M77.05,13.76 L 75.91 14.31"/>
  <path fill="none" d="M81.59,8.47 L 75.91 14.31"/>
  <path fill="none" d="M37.08,65.71 L 38.27 66.14"/>
  <path fill="none" d="M37.63,65.04 L 38.27 66.14"/>
  <path fill="none" d="M32.46,61.33 L 38.27 66.14"/>
  <path fill="none" d="M30.68,55.29 L 29.86 54.33"/>
  <path fill="none" d="M29.87,55.6 L 29.86 54.33"/>
  <path fill="none" d="M32.46,61.33 L 29.86 54.33"/>
  <path fill="none" d="M36.6,52.41 L 36.66 51.14"/>
  <path fill="none" d="M35.8,52.08 L 36.66 51.14"/>
  <path fill="none" d="M32.46,61.33 L 36.66 51.14"/>
  <path fill="none" d="M30.06,70.06 L 30.22 71.32"/>
  <path fill="none" d="M30.9,70.25 L 30.22 71.32"/>
  <path fill="none" d="M32.46,61.33 L 30.22 71.32"/>
  <path fill="none" d="M36.53,67.88 L 37.57 68.6"/>
  <path fill="none" d="M37.24,67.38 L 37.57 68.6"/>
  <path fill="none" d="M32.46,61.33 L 37.57 68.6"/>
  <path fill="none" d="M29.67,56.05 L 28.66 55.27"/>
  <path fill="none" d="M28.93,56.51 L 28.66 55.27"/>
  <path fill="none" d="M32.46,61.33 L 28.66 55.27"/>
  <path fill="none" d="M35.51,73.25 L 36.61 73.88"/>
  <path fill="none" d="M36.18,72.69 L 36.61 73.88"/>
  <path fill="none" d="M27.84,63.35 L 36.61 73.88"/>
  <path fill="none" d="M21.61,68.66 L 21.04 69.8"/>
  <path fill="none" d="M22.2,69.29 L 21.04 69.8"/>
  <path fill="none" d="M27.84,63.35 L 21.04 69.8"/>
  <path fill="none" d="M22.62,62.79 L 21.41 63.2"/>
  <path fill="none" d="M22.6,63.66 L 21.41 63.2"/>
  <path fill="none" d="M27.84,63.35 L 21.41 63.2"/>
  <path fill="none" d="M36.12,52.26 L 36.45 51.03"/>
  <path fill="none" d="M35.41,51.76 L 36.45 51.03"/>
  <path fill="none" d="M27.84,63.35 L 36.45 51.03"/>
  <path fill="none" d="M28.47,56.64 L 28.07 55.43"/>
  <path fill="none" d="M27.6,56.61 L 28.07 55.43"/>
  <path fill="none" d="M27.84,63.35 L 28.07 55.43"/>
  <path fill="none" d="M43.24,57.71 L 43.53 58.94"/>
  <path fill="none" d="M44.1,57.81 L 43.53 58.94"/>
  <path fill="none" d="M44.78,48.21 L 43.53 58.94"/>
  <path fill="none" d="M51.29,48.15 L 52.45 47.63"/>
  <path fill="none" d="M51.23,47.28 L 52.45 47.63"/>
  <path fill="none" d="M44.78,48.21 L 52.45 47.63"/>
  <path fill="none" d="M39.13,44.53 L 37.88 44.32"/>
  <path fill="none" d="M38.7,45.28 L 37.88 44.32"/>
  <path fill="none" d="M44.78,48.21 L 37.88 44.32"/>
  <path fill="none" d="M50.53,73.83 L 49.65 72.92"/>
  <path fill="none" d="M49.74,74.19 L 49.65 72.92"/>
  <path fill="none" d="M53.01,80.44 L 49.65 72.92"/>
  <path fill="none" d="M52.19,74.6 L 51.52 73.52"/>
  <path fill="none" d="M51.34,74.78 L 51.52 73.52"/>
  <path fill="none" d="M53.01,80.44 L 51.52 73.52"/>
  <path fill="none" d="M67.24,69.97 L 65.97 69.89"/>
  <path fill="none" d="M66.89,70.77 L 65.97 69.89"/>
  <path fill="none" d="M74.89,73.76 L 65.97 69.89"/>
  <path fill="none" d="M38.01,64.79 L 38.77 65.8"/>
  <path fill="none" d="M38.84,64.53 L 38.77 65.8"/>
  <path fill="none" d="M35.41,54.91 L 38.77 65.8"/>
  <path fill="none" d="M40.3,45.4 L 40.4 44.13"/>
  <path fill="none" d="M39.51,45.03 L 40.4 44.13"/>
  <path fill="none" d="M35.41,54.91 L 40.4 44.13"/>
  <path fill="none" d="M41.34,76.33 L 41.85 75.17"/>
  <path fill="none" d="M40.71,75.73 L 41.85 75.17"/>
  <path fill="none" d="M34.46,82.91 L 41.85 75.17"/>
  <path fill="none" d="M31.19,78.79 L 30.05 78.22"/>
  <path fill="none" d="M30.55,79.38 L 30.05 78.22"/>
  <path fill="none" d="M34.46,82.91 L 30.05 78.22"/>
  <path fill="none" d="M51.23,36.17 L 51.82 37.29"/>
  <path fill="none" d="M52.09,36.05 L 51.82 37.29"/>
  <path fill="none" d="M50.39,26.83 L 51.82 37.29"/>
  <path fill="none" d="M39.59,54.62 L 39.85 53.37"/>
  <path fill="none" d="M38.86,54.16 L 39.85 53.37"/>
  <path fill="none" d="M32.04,65.97 L 39.85 53.37"/>
  <path fill="none" d="M29.42,75.15 L 29.57 76.41"/>
  <path fill="none" d="M30.27,75.35 L 29.57 76.41"/>
  <path fill="none" d="M32.04,65.97 L 29.57 76.41"/>
  <path fill="none" d="M49.07,66.11 L 50.22 66.66"/>
  <path fill="none" d="M49.69,65.5 L 50.22 66.66"/>
  <path fill="none" d="M45.98,62.36 L 50.22 66.66"/>
  <path fill="none" d="M39.55,67.63 L 38.96 68.76"/>
  <path fill="none" d="M40.13,68.27 L 38.96 68.76"/>
  <path fill="none" d="M45.98,62.36 L 38.96 68.76"/>
  <path fill="none" d="M48.02,54.78 L 47.83 53.52"/>
  <path fill="none" d="M47.16,54.6 L 47.83 53.52"/>
  <path fill="none" d="M45.98,62.36 L 47.83 53.52"/>
  <path fill="none" d="M44.67,57.22 L 43.88 56.23"/>
  <path fill="none" d="M43.85,57.5 L 43.88 56.23"/>
  <path fill="none" d="M45.98,62.36 L 43.88 56.23"/>
  <path fill="none" d="M25.58,63.73 L 26.78 63.33"/>
  <path fill="none" d="M25.6,62.87 L 26.78 63.33"/>
  <path fill="none" d="M20.36,63.18 L 26.78 63.33"/>
  <path fill="none" d="M27.72,63.08 L 28.87 62.56"/>
  <path fill="none" d="M27.65,62.21 L 28.87 62.56"/>
  <path fill="none" d="M20.36,63.18 L 28.87 62.56"/>
  <path fill="none" d="M18.16,60.66 L 16.98 60.2"/>
  <path fill="none" d="M17.59,61.32 L 16.98 60.2"/>
  <path fill="none" d="M20.36,63.18 L 16.98 60.2"/>
  <path fill="none" d="M15.19,44.39 L 16.43 44.69"/>
  <path fill="none" d="M15.67,43.67 L 16.43 44.69"/>
  <path fill="none" d="M8.47,39.42 L 16.43 44.69"/>
  <path fill="none" d="M46.52,74.22 L 47.71 74.65"/>
  <path fill="none" d="M47.07,73.55 L 47.71 74.65"/>
  <path fill="none" d="M43.35,71.04 L 47.71 74.65"/>
  <path fill="none" d="M43.83,62.25 L 43.41 61.05"/>
  <path fill="none" d="M42.96,62.24 L 43.41 61.05"/>
  <path fill="none" d="M43.35,71.04 L 43.41 61.05"/>
  <path fill="none" d="M39.26,79.26 L 39.04 80.51"/>
  <path fill="none" d="M40.02,79.69 L 39.04 80.51"/>
  <path fill="none" d="M42.58,74.4 L 39.04 80.51"/>
  <path fill="none" d="M45.06,61.39 L 44.81 60.15"/>
  <path fill="none" d="M44.2,61.26 L 44.81 60.15"/>
  <path fill="none" d="M42.58,74.4 L 44.81 60.15"/>
  <path fill="none" d="M35.7,80.98 L 35.19 82.14"/>
  <path fill="none" d="M36.33,81.58 L 35.19 82.14"/>
  <path fill="none" d="M42.58,74.4 L 35.19 82.14"/>
  <path fill="none" d="M49.19,73.39 L 50.26 72.71"/>
  <path fill="none" d="M49,72.54 L 50.26 72.71"/>
  <path fill="none" d="M42.58,74.4 L 50.26 72.71"/>
  <path fill="none" d="M42.01,60.7 L 42.81 61.68"/>
  <path fill="none" d="M42.82,60.41 L 42.81 61.68"/>
  <path fill="none" d="M38.84,50.41 L 42.81 61.68"/>
  <path fill="none" d="M31.51,52.25 L 30.5 53.02"/>
  <path fill="none" d="M31.77,53.08 L 30.5 53.02"/>
  <path fill="none" d="M38.84,50.41 L 30.5 53.02"/>
  <path fill="none" d="M41.25,43.36 L 41.15 42.09"/>
  <path fill="none" d="M40.42,43.13 L 41.15 42.09"/>
  <path fill="none" d="M38.84,50.41 L 41.15 42.09"/>
  <path fill="none" d="M43.75,49.59 L 44.8 48.87"/>
  <path fill="none" d="M43.53,48.75 L 44.8 48.87"/>
  <path fill="none" d="M38.84,50.41 L 44.8 48.87"/>
  <path fill="none" d="M40.91,63.08 L 42.1 62.66"/>
  <path fill="none" d="M40.92,62.21 L 42.1 62.66"/>
  <path fill="none" d="M29.93,62.48 L 42.1 62.66"/>
  <path fill="none" d="M30.03,55.56 L 29.54 54.39"/>
  <path fill="none" d="M29.16,55.6 L 29.54 54.39"/>
  <path fill="none" d="M29.93,62.48 L 29.54 54.39"/>
  <path fill="none" d="M22.57,62.58 L 21.41 63.1"/>
  <path fill="none" d="M22.63,63.45 L 21.41 63.1"/>
  <path fill="none" d="M29.93,62.48 L 21.41 63.1"/>
  <path fill="none" d="M35.89,58.19 L 36.54 57.1"/>
  <path fill="none" d="M35.34,57.52 L 36.54 57.1"/>
  <path fill="none" d="M29.93,62.48 L 36.54 57.1"/>
  <path fill="none" d="M26.81,70.51 L 26.85 71.78"/>
  <path fill="none" d="M27.64,70.78 L 26.85 71.78"/>
  <path fill="none" d="M29.93,62.48 L 26.85 71.78"/>
  <path fill="none" d="M66.95,68.28 L 65.99 69.1"/>
  <path fill="none" d="M67.26,69.09 L 65.99 69.1"/>
  <path fill="none" d="M70.4,67.45 L 65.99 69.1"/>
  <path fill="none" d="M81.47,69.9 L 82.72 69.68"/>
  <path fill="none" d="M81.62,69.04 L 82.72 69.68"/>
  <path fill="none" d="M70.4,67.45 L 82.72 69.68"/>
  <path fill="none" d="M59.43,69.49 L 58.36 70.18"/>
  <path fill="none" d="M59.62,70.34 L 58.36 70.18"/>
  <path fill="none" d="M70.4,67.45 L 58.36 70.18"/>
  <path fill="none" d="M63.47,60 L 62.32 59.47"/>
  <path fill="none" d="M62.86,60.62 L 62.32 59.47"/>
  <path fill="none" d="M70.4,67.45 L 62.32 59.47"/>
  <path fill="none" d="M43.08,57.81 L 44.23 58.35"/>
  <path fill="none" d="M43.7,57.2 L 44.23 58.35"/>
  <path fill="none" d="M43.71,57.83 L 44.23 58.35"/>
  <path fill="none" d="M33.91,52.37 L 32.64 52.22"/>
  <path fill="none" d="M33.51,53.14 L 32.64 52.22"/>
  <path fill="none" d="M43.71,57.83 L 32.64 52.22"/>
  <path fill="none" d="M38.86,51.58 L 37.75 50.96"/>
  <path fill="none" d="M38.21,52.15 L 37.75 50.96"/>
  <path fill="none" d="M43.71,57.83 L 37.75 50.96"/>
  <path fill="none" d="M50.3,54.67 L 51.14 53.71"/>
  <path fill="none" d="M49.88,53.91 L 51.14 53.71"/>
  <path fill="none" d="M43.71,57.83 L 51.14 53.71"/>
  <path fill="none" d="M46.97,54.51 L 47.38 53.31"/>
  <path fill="none" d="M46.29,53.96 L 47.38 53.31"/>
  <path fill="none" d="M43.71,57.83 L 47.38 53.31"/>
  <path fill="none" d="M49.88,70.69 L 50.81 71.55"/>
  <path fill="none" d="M50.65,70.29 L 50.81 71.55"/>
  <path fill="none" d="M43.71,57.83 L 50.81 71.55"/>
  <path fill="none" d="M48.92,87.55 L 48.1 88.52"/>
  <path fill="none" d="M49.35,88.31 L 48.1 88.52"/>
  <path fill="none" d="M55.63,84.24 L 48.1 88.52"/>
  <path fill="none" d="M57.49,72.71 L 57.2 71.47"/>
  <path fill="none" d="M56.62,72.6 L 57.2 71.47"/>
  <path fill="none" d="M55.63,84.24 L 57.2 71.47"/>
  <path fill="none" d="M24.43,58.33 L 25.52 57.68"/>
  <path fill="none" d="M24.26,57.48 L 25.52 57.68"/>
  <path fill="none" d="M16.19,59.5 L 25.52 57.68"/>
  <path fill="none" d="M18.38,62.01 L 19.56 62.48"/>
  <path fill="none" d="M18.95,61.36 L 19.56 62.48"/>
  <path fill="none" d="M16.19,59.5 L 19.56 62.48"/>
  <path fill="none" d="M53.41,60.95 L 52.36 60.24"/>
  <path fill="none" d="M52.71,61.46 L 52.36 60.24"/>
  <path fill="none" d="M56.9,66.56 L 52.36 60.24"/>
  <path fill="none" d="M50.81,70.31 L 50.09 71.35"/>
  <path fill="none" d="M51.31,71.02 L 50.09 71.35"/>
  <path fill="none" d="M56.9,66.56 L 50.09 71.35"/>
  <path fill="none" d="M59.93,64.78 L 60.62 63.71"/>
  <path fill="none" d="M59.41,64.09 L 60.62 63.71"/>
  <path fill="none" d="M56.9,66.56 L 60.62 63.71"/>
  <path fill="none" d="M47.87,63.66 L 46.73 63.11"/>
  <path fill="none" d="M47.25,64.27 L 46.73 63.11"/>
  <path fill="none" d="M50.96,67.41 L 46.73 63.11"/>
  <path fill="none" d="M45.32,61.26 L 44.17 60.74"/>
  <path fill="none" d="M44.71,61.88 L 44.17 60.74"/>
  <path fill="none" d="M50.96,67.41 L 44.17 60.74"/>
  <path fill="none" d="M55.11,69.85 L 56.37 69.97"/>
  <path fill="none" d="M55.48,69.06 L 56.37 69.97"/>
  <path fill="none" d="M50.96,67.41 L 56.37 69.97"/>
  <path fill="none" d="M49.14,66.68 L 47.89 66.91"/>
  <path fill="none" d="M49,67.53 L 47.89 66.91"/>
  <path fill="none" d="M50.96,67.41 L 47.89 66.91"/>
  <path fill="none" d="M50.72,70.27 L 51.23 71.43"/>
  <path fill="none" d="M51.58,70.21 L 51.23 71.43"/>
  <path fill="none" d="M50.96,67.41 L 51.23 71.43"/>
  <path fill="none" d="M49.41,51.39 L 50.63 51.03"/>
  <path fill="none" d="M49.47,50.52 L 50.63 51.03"/>
  <path fill="none" d="M37.06,50.16 L 50.63 51.03"/>
  <path fill="none" d="M32.92,41.14 L 31.99 40.27"/>
  <path fill="none" d="M32.15,41.53 L 31.99 40.27"/>
  <path fill="none" d="M37.06,50.16 L 31.99 40.27"/>
  <path fill="none" d="M44.76,39.84 L 45.08 38.61"/>
  <path fill="none" d="M44.04,39.34 L 45.08 38.61"/>
  <path fill="none" d="M37.06,50.16 L 45.08 38.61"/>
  <path fill="none" d="M31.95,48.15 L 30.68 48.22"/>
  <path fill="none" d="M31.7,48.98 L 30.68 48.22"/>
  <path fill="none" d="M37.06,50.16 L 30.68 48.22"/>
  <path fill="none" d="M32.92,59.08 L 32.87 60.35"/>
  <path fill="none" d="M33.72,59.41 L 32.87 60.35"/>
  <path fill="none" d="M37.06,50.16 L 32.87 60.35"/>
  <path fill="none" d="M28.77,61.26 L 28.45 62.49"/>
  <path fill="none" d="M29.49,61.76 L 28.45 62.49"/>
  <path fill="none" d="M37.06,50.16 L 28.45 62.49"/>
  <path fill="none" d="M41.9,56.41 L 43.02 57.03"/>
  <path fill="none" d="M42.56,55.84 L 43.02 57.03"/>
  <path fill="none" d="M37.06,50.16 L 43.02 57.03"/>
  <path fill="none" d="M49.45,59.35 L 50.71 59.17"/>
  <path fill="none" d="M49.63,58.5 L 50.71 59.17"/>
  <path fill="none" d="M37.36,56.44 L 50.71 59.17"/>
  <path fill="none" d="M31.5,49.29 L 30.38 48.69"/>
  <path fill="none" d="M30.86,49.87 L 30.38 48.69"/>
  <path fill="none" d="M37.36,56.44 L 30.38 48.69"/>
  <path fill="none" d="M31.4,60.73 L 30.75 61.82"/>
  <path fill="none" d="M31.95,61.4 L 30.75 61.82"/>
  <path fill="none" d="M37.36,56.44 L 30.75 61.82"/>
  <path fill="none" d="M39.02,48.13 L 39.12 49.39"/>
  <path fill="none" d="M39.86,48.36 L 39.12 49.39"/>
  <path fill="none" d="M41.44,41.07 L 39.12 49.39"/>
  <path fill="none" d="M44.31,46.88 L 45.29 47.69"/>
  <path fill="none" d="M45.06,46.44 L 45.29 47.69"/>
  <path fill="none" d="M41.44,41.07 L 45.29 47.69"/>
  <path fill="none" d="M72.69,67.42 L 71.44 67.64"/>
  <path fill="none" d="M72.53,68.28 L 71.44 67.64"/>
  <path fill="none" d="M83.76,69.87 L 71.44 67.64"/>
  <path fill="none" d="M90.84,71.79 L 92.1 71.61"/>
  <path fill="none" d="M91.02,70.94 L 92.1 71.61"/>
  <path fill="none" d="M83.76,69.87 L 92.1 71.61"/>
  <path fill="none" d="M35.96,52.68 L 35.85 53.95"/>
  <path fill="none" d="M36.75,53.05 L 35.85 53.95"/>
  <path fill="none" d="M40.85,43.17 L 35.85 53.95"/>
  <path fill="none" d="M50.08,39.63 L 51 38.76"/>
  <path fill="none" d="M49.73,38.84 L 51 38.76"/>
  <path fill="none" d="M40.85,43.17 L 51 38.76"/>
  <path fill="none" d="M86.05,69.91 L 84.79 70.09"/>
  <path fill="none" d="M85.87,70.76 L 84.79 70.09"/>
  <path fill="none" d="M93.13,71.83 L 84.79 70.09"/>
  <path fill="none" d="M49.7,58.34 L 50.91 58.73"/>
  <path fill="none" d="M50.23,57.65 L 50.91 58.73"/>
  <path fill="none" d="M46.51,55.32 L 50.91 58.73"/>
  <path fill="none" d="M43.7,60.45 L 43.6 61.72"/>
  <path fill="none" d="M44.49,60.81 L 43.6 61.72"/>
  <path fill="none" d="M46.51,55.32 L 43.6 61.72"/>
  <path fill="none" d="M49.43,44.96 L 49.28 43.7"/>
  <path fill="none" d="M48.58,44.76 L 49.28 43.7"/>
  <path fill="none" d="M46.51,55.32 L 49.28 43.7"/>
  <path fill="none" d="M46.48,50.8 L 45.93 49.66"/>
  <path fill="none" d="M45.62,50.89 L 45.93 49.66"/>
  <path fill="none" d="M46.51,55.32 L 45.93 49.66"/>
  <path fill="none" d="M40.67,62.93 L 40.34 64.16"/>
  <path fill="none" d="M41.38,63.43 L 40.34 64.16"/>
  <path fill="none" d="M46.51,55.32 L 40.34 64.16"/>
  <path fill="none" d="M44.29,57.88 L 44 59.11"/>
  <path fill="none" d="M45.02,58.36 L 44 59.11"/>
  <path fill="none" d="M46.51,55.32 L 44 59.11"/>
  <path fill="none" d="M32.39,63.62 L 32.23 62.36"/>
  <path fill="none" d="M31.55,63.43 L 32.23 62.36"/>
  <path fill="none" d="M29.99,72.35 L 32.23 62.36"/>
  <path fill="none" d="M38.19,66.73 L 38.89 65.66"/>
  <path fill="none" d="M37.67,66.03 L 38.89 65.66"/>
  <path fill="none" d="M29.99,72.35 L 38.89 65.66"/>
  <path fill="none" d="M25.39,80.79 L 25.26 82.05"/>
  <path fill="none" d="M26.18,81.17 L 25.26 82.05"/>
  <path fill="none" d="M29.99,72.35 L 25.26 82.05"/>
  <path fill="none" d="M40.49,82.59 L 39.31 82.12"/>
  <path fill="none" d="M39.92,83.24 L 39.31 82.12"/>
  <path fill="none" d="M47.18,89.04 L 39.31 82.12"/>
  <path fill="none" d="M53.89,85.73 L 54.71 84.77"/>
  <path fill="none" d="M53.46,84.98 L 54.71 84.77"/>
  <path fill="none" d="M47.18,89.04 L 54.71 84.77"/>
  <path fill="none" d="M41.99,50.81 L 41.27 51.86"/>
  <path fill="none" d="M42.5,51.52 L 41.27 51.86"/>
  <path fill="none" d="M45.82,48.61 L 41.27 51.86"/>
  <path fill="none" d="M44.72,56.82 L 45.06 58.05"/>
  <path fill="none" d="M45.59,56.89 L 45.06 58.05"/>
  <path fill="none" d="M45.82,48.61 L 45.06 58.05"/>
  <path fill="none" d="M51.78,46.15 L 52.66 45.23"/>
  <path fill="none" d="M51.39,45.37 L 52.66 45.23"/>
  <path fill="none" d="M45.82,48.61 L 52.66 45.23"/>
  <path fill="none" d="M40.91,49.43 L 39.86 50.15"/>
  <path fill="none" d="M41.13,50.27 L 39.86 50.15"/>
  <path fill="none" d="M45.82,48.61 L 39.86 50.15"/>
  <path fill="none" d="M42.95,42.8 L 41.97 41.99"/>
  <path fill="none" d="M42.19,43.24 L 41.97 41.99"/>
  <path fill="none" d="M45.82,48.61 L 41.97 41.99"/>
  <path fill="none" d="M45.85,53.12 L 46.4 54.26"/>
  <path fill="none" d="M46.71,53.03 L 46.4 54.26"/>
  <path fill="none" d="M45.82,48.61 L 46.4 54.26"/>
  <path fill="none" d="M45.58,57.41 L 45.91 56.18"/>
  <path fill="none" d="M44.87,56.91 L 45.91 56.18"/>
  <path fill="none" d="M39.73,65.03 L 45.91 56.18"/>
  <path fill="none" d="M31.53,70.65 L 30.83 71.72"/>
  <path fill="none" d="M32.05,71.35 L 30.83 71.72"/>
  <path fill="none" d="M39.73,65.03 L 30.83 71.72"/>
  <path fill="none" d="M36.38,64.02 L 35.13 64.25"/>
  <path fill="none" d="M36.24,64.88 L 35.13 64.25"/>
  <path fill="none" d="M39.73,65.03 L 35.13 64.25"/>
  <path fill="none" d="M47.51,65.55 L 48.7 65.13"/>
  <path fill="none" d="M47.52,64.68 L 48.7 65.13"/>
  <path fill="none" d="M39.73,65.03 L 48.7 65.13"/>
  <path fill="none" d="M29.39,74.57 L 29.52 73.31"/>
  <path fill="none" d="M28.61,74.19 L 29.52 73.31"/>
  <path fill="none" d="M24.8,83 L 29.52 73.31"/>
  <path fill="none" d="M39.41,79.31 L 39.1 80.55"/>
  <path fill="none" d="M40.13,79.8 L 39.1 80.55"/>
  <path fill="none" d="M41.89,76.39 L 39.1 80.55"/>
  <path fill="none" d="M47.52,73.49 L 48.31 72.5"/>
  <path fill="none" d="M47.07,72.75 L 48.31 72.5"/>
  <path fill="none" d="M41.89,76.39 L 48.31 72.5"/>
  <path fill="none" d="M39.62,71.25 L 38.68 70.4"/>
  <path fill="none" d="M38.86,71.66 L 38.68 70.4"/>
  <path fill="none" d="M41.89,76.39 L 38.68 70.4"/>
  <path fill="none" d="M36.78,78.16 L 35.86 79.04"/>
  <path fill="none" d="M37.13,78.95 L 35.86 79.04"/>
  <path fill="none" d="M41.89,76.39 L 35.86 79.04"/>
  <path fill="none" d="M46.2,68.95 L 46.36 67.69"/>
  <path fill="none" d="M45.43,68.55 L 46.36 67.69"/>
  <path fill="none" d="M41.89,76.39 L 46.36 67.69"/>
  <path fill="none" d="M45.36,72.14 L 44.16 71.71"/>
  <path fill="none" d="M44.8,72.81 L 44.16 71.71"/>
  <path fill="none" d="M48.53,75.32 L 44.16 71.71"/>
  <path fill="none" d="M49.92,67.43 L 49.63 66.19"/>
  <path fill="none" d="M49.06,67.32 L 49.63 66.19"/>
  <path fill="none" d="M48.53,75.32 L 49.63 66.19"/>
  <path fill="none" d="M55.64,55.73 L 56.9 55.94"/>
  <path fill="none" d="M56.07,54.98 L 56.9 55.94"/>
  <path fill="none" d="M52.06,53.2 L 56.9 55.94"/>
  <path fill="none" d="M47.83,44.77 L 46.86 43.95"/>
  <path fill="none" d="M47.07,45.2 L 46.86 43.95"/>
  <path fill="none" d="M52.06,53.2 L 46.86 43.95"/>
  <path fill="none" d="M45.47,56.35 L 44.63 57.31"/>
  <path fill="none" d="M45.89,57.11 L 44.63 57.31"/>
  <path fill="none" d="M52.06,53.2 L 44.63 57.31"/>
  <path fill="none" d="M59.01,39.93 L 59.15 38.67"/>
  <path fill="none" d="M58.23,39.55 L 59.15 38.67"/>
  <path fill="none" d="M52.06,53.2 L 59.15 38.67"/>
  <path fill="none" d="M47.25,64.49 L 47.23 65.76"/>
  <path fill="none" d="M48.06,64.8 L 47.23 65.76"/>
  <path fill="none" d="M52.06,53.2 L 47.23 65.76"/>
  <path fill="none" d="M49.76,62.85 L 49.96 64.1"/>
  <path fill="none" d="M50.61,63.01 L 49.96 64.1"/>
  <path fill="none" d="M52.06,53.2 L 49.96 64.1"/>
  <path fill="none" d="M34.11,62.93 L 33.07 62.2"/>
  <path fill="none" d="M33.4,63.42 L 33.07 62.2"/>
  <path fill="none" d="M38.18,69.47 L 33.07 62.2"/>
  <path fill="none" d="M44.61,64.2 L 45.2 63.07"/>
  <path fill="none" d="M44.03,63.55 L 45.2 63.07"/>
  <path fill="none" d="M38.18,69.47 L 45.2 63.07"/>
  <path fill="none" d="M40.44,74.61 L 41.39 75.45"/>
  <path fill="none" d="M41.21,74.2 L 41.39 75.45"/>
  <path fill="none" d="M38.18,69.47 L 41.39 75.45"/>
  <path fill="none" d="M38.79,69.08 L 38.75 67.81"/>
  <path fill="none" d="M37.97,68.81 L 38.75 67.81"/>
  <path fill="none" d="M34.89,79.46 L 38.75 67.81"/>
  <path fill="none" d="M40,77.69 L 40.92 76.81"/>
  <path fill="none" d="M39.65,76.89 L 40.92 76.81"/>
  <path fill="none" d="M34.89,79.46 L 40.92 76.81"/>
  <path fill="none" d="M31.59,77.8 L 30.32 77.8"/>
  <path fill="none" d="M31.3,78.62 L 30.32 77.8"/>
  <path fill="none" d="M34.89,79.46 L 30.32 77.8"/>
  <path fill="none" d="M33.71,85.88 L 34 87.11"/>
  <path fill="none" d="M34.57,85.98 L 34 87.11"/>
  <path fill="none" d="M34.89,79.46 L 34 87.11"/>
  <path fill="none" d="M41.65,54.41 L 40.8 53.46"/>
  <path fill="none" d="M40.84,54.73 L 40.8 53.46"/>
  <path fill="none" d="M43.41,60 L 40.8 53.46"/>
  <path fill="none" d="M53.19,53.9 L 53.94 52.87"/>
  <path fill="none" d="M52.71,53.18 L 53.94 52.87"/>
  <path fill="none" d="M43.41,60 L 53.94 52.87"/>
  <path fill="none" d="M47.85,70.12 L 48.76 71"/>
  <path fill="none" d="M48.63,69.74 L 48.76 71"/>
  <path fill="none" d="M43.41,60 L 48.76 71"/>
  <path fill="none" d="M28.85,57.38 L 27.6 57.63"/>
  <path fill="none" d="M28.72,58.24 L 27.6 57.63"/>
  <path fill="none" d="M43.41,60 L 27.6 57.63"/>
  <path fill="none" d="M44.95,50.49 L 44.65 49.26"/>
  <path fill="none" d="M44.09,50.39 L 44.65 49.26"/>
  <path fill="none" d="M43.41,60 L 44.65 49.26"/>
  <path fill="none" d="M42.92,68.78 L 43.35 69.98"/>
  <path fill="none" d="M43.79,68.79 L 43.35 69.98"/>
  <path fill="none" d="M43.41,60 L 43.35 69.98"/>
  <path fill="none" d="M49.05,66.14 L 50.21 66.67"/>
  <path fill="none" d="M49.66,65.52 L 50.21 66.67"/>
  <path fill="none" d="M43.41,60 L 50.21 66.67"/>
  <path fill="none" d="M45.63,57.43 L 45.93 56.2"/>
  <path fill="none" d="M44.91,56.95 L 45.93 56.2"/>
  <path fill="none" d="M43.41,60 L 45.93 56.2"/>
  <path fill="none" d="M23.67,45.47 L 24.84 44.99"/>
  <path fill="none" d="M23.63,44.6 L 24.84 44.99"/>
  <path fill="none" d="M17.31,45.27 L 24.84 44.99"/>
  <path fill="none" d="M10.58,40.3 L 9.35 40.01"/>
  <path fill="none" d="M10.1,41.03 L 9.35 40.01"/>
  <path fill="none" d="M17.31,45.27 L 9.35 40.01"/>
  <path fill="none" d="M26.1,53.26 L 27.29 53.69"/>
  <path fill="none" d="M26.66,52.59 L 27.29 53.69"/>
  <path fill="none" d="M17.31,45.27 L 27.29 53.69"/>
  <path fill="none" d="M29.42,51.49 L 30.69 51.43"/>
  <path fill="none" d="M29.67,50.66 L 30.69 51.43"/>
  <path fill="none" d="M22.97,49.06 L 30.69 51.43"/>
  <path fill="none" d="M24.95,47.04 L 25.29 45.82"/>
  <path fill="none" d="M24.24,46.54 L 25.29 45.82"/>
  <path fill="none" d="M22.97,49.06 L 25.29 45.82"/>
  <path fill="none" d="M25.27,55.57 L 26.14 56.5"/>
  <path fill="none" d="M26.07,55.23 L 26.14 56.5"/>
  <path fill="none" d="M22.97,49.06 L 26.14 56.5"/>
  <path fill="none" d="M23.57,45.01 L 23.19 43.8"/>
  <path fill="none" d="M22.71,44.98 L 23.19 43.8"/>
  <path fill="none" d="M22.97,49.06 L 23.19 43.8"/>
  <path fill="none" d="M64.6,26.22 L 65.32 25.17"/>
  <path fill="none" d="M64.1,25.51 L 65.32 25.17"/>
  <path fill="none" d="M55.81,31.87 L 65.32 25.17"/>
  <path fill="none" d="M47.41,36.24 L 46.6 37.21"/>
  <path fill="none" d="M47.85,36.99 L 46.6 37.21"/>
  <path fill="none" d="M55.81,31.87 L 46.6 37.21"/>
  <path fill="none" d="M50.29,40.5 L 50.06 41.75"/>
  <path fill="none" d="M51.04,40.94 L 50.06 41.75"/>
  <path fill="none" d="M55.81,31.87 L 50.06 41.75"/>
  <path fill="none" d="M67.42,22.63 L 66.92 23.8"/>
  <path fill="none" d="M68.05,23.23 L 66.92 23.8"/>
  <path fill="none" d="M75.17,15.07 L 66.92 23.8"/>
  <path fill="none" d="M80.33,10.38 L 80.85 9.23"/>
  <path fill="none" d="M79.71,9.78 L 80.85 9.23"/>
  <path fill="none" d="M75.17,15.07 L 80.85 9.23"/>
  <path fill="none" d="M56.37,53.97 L 55.37 53.18"/>
  <path fill="none" d="M55.63,54.42 L 55.37 53.18"/>
  <path fill="none" d="M61.45,63.06 L 55.37 53.18"/>
  <path fill="none" d="M58.42,64.85 L 57.74 65.92"/>
  <path fill="none" d="M58.95,65.53 L 57.74 65.92"/>
  <path fill="none" d="M61.45,63.06 L 57.74 65.92"/>
  <path fill="none" d="M58.05,68.24 L 57.85 69.49"/>
  <path fill="none" d="M58.81,68.67 L 57.85 69.49"/>
  <path fill="none" d="M61.45,63.06 L 57.85 69.49"/>
  <path fill="none" d="M63.26,54.83 L 63.02 53.58"/>
  <path fill="none" d="M62.4,54.68 L 63.02 53.58"/>
  <path fill="none" d="M61.45,63.06 L 63.02 53.58"/>
  <path fill="none" d="M67.75,71.88 L 68.83 72.56"/>
  <path fill="none" d="M68.44,71.35 L 68.83 72.56"/>
  <path fill="none" d="M61.45,63.06 L 68.83 72.56"/>
  <path fill="none" d="M51.9,64.32 L 50.8 64.95"/>
  <path fill="none" d="M52.05,65.17 L 50.8 64.95"/>
  <path fill="none" d="M61.45,63.06 L 50.8 64.95"/>
  <path fill="none" d="M65.8,60.2 L 66.47 59.12"/>
  <path fill="none" d="M65.26,59.51 L 66.47 59.12"/>
  <path fill="none" d="M61.45,63.06 L 66.47 59.12"/>
  <path fill="none" d="M45.35,63.38 L 44.09 63.19"/>
  <path fill="none" d="M44.93,64.14 L 44.09 63.19"/>
  <path fill="none" d="M57.33,70.42 L 44.09 63.19"/>
  <path fill="none" d="M68.3,68.37 L 69.36 67.68"/>
  <path fill="none" d="M68.1,67.52 L 69.36 67.68"/>
  <path fill="none" d="M57.33,70.42 L 69.36 67.68"/>
  <path fill="none" d="M55.48,81.96 L 55.76 83.19"/>
  <path fill="none" d="M56.34,82.06 L 55.76 83.19"/>
  <path fill="none" d="M57.33,70.42 L 55.76 83.19"/>
  <path fill="none" d="M53.19,67.98 L 51.92 67.86"/>
  <path fill="none" d="M52.82,68.77 L 51.92 67.86"/>
  <path fill="none" d="M57.33,70.42 L 51.92 67.86"/>
  <path fill="none" d="M60.73,65.24 L 60.94 63.98"/>
  <path fill="none" d="M59.97,64.81 L 60.94 63.98"/>
  <path fill="none" d="M57.33,70.42 L 60.94 63.98"/>
  <path fill="none" d="M32.6,81.57 L 33.74 82.14"/>
  <path fill="none" d="M33.24,80.97 L 33.74 82.14"/>
  <path fill="none" d="M29.33,77.44 L 33.74 82.14"/>
  <path fill="none" d="M31.94,68.26 L 31.8 67"/>
  <path fill="none" d="M31.1,68.06 L 31.8 67"/>
  <path fill="none" d="M29.33,77.44 L 31.8 67"/>
  <path fill="none" d="M32.63,79.1 L 33.9 79.1"/>
  <path fill="none" d="M32.92,78.29 L 33.9 79.1"/>
  <path fill="none" d="M29.33,77.44 L 33.9 79.1"/>
  <path fill="none" d="M28.05,74.49 L 27.06 73.69"/>
  <path fill="none" d="M27.31,74.93 L 27.06 73.69"/>
  <path fill="none" d="M29.33,77.44 L 27.06 73.69"/>
  <path fill="none" d="M37.53,79.35 L 38.25 80.4"/>
  <path fill="none" d="M38.38,79.14 L 38.25 80.4"/>
  <path fill="none" d="M34.09,64.08 L 38.25 80.4"/>
  <path fill="none" d="M37.44,65.08 L 38.69 64.85"/>
  <path fill="none" d="M37.58,64.22 L 38.69 64.85"/>
  <path fill="none" d="M34.09,64.08 L 38.69 64.85"/>
  <path fill="none" d="M31.94,47.54 L 31.33 46.42"/>
  <path fill="none" d="M31.08,47.67 L 31.33 46.42"/>
  <path fill="none" d="M34.09,64.08 L 31.33 46.42"/>
  <path fill="none" d="M53.94,50.16 L 54.6 51.24"/>
  <path fill="none" d="M54.79,49.98 L 54.6 51.24"/>
  <path fill="none" d="M51.97,38.34 L 54.6 51.24"/>
  <path fill="none" d="M51.13,29 L 50.54 27.88"/>
  <path fill="none" d="M50.27,29.12 L 50.54 27.88"/>
  <path fill="none" d="M51.97,38.34 L 50.54 27.88"/>
  <path fill="none" d="M42.74,41.88 L 41.82 42.75"/>
  <path fill="none" d="M43.09,42.67 L 41.82 42.75"/>
  <path fill="none" d="M51.97,38.34 L 41.82 42.75"/>
  <path fill="none" d="M57.4,38.33 L 58.55 37.8"/>
  <path fill="none" d="M57.33,37.47 L 58.55 37.8"/>
  <path fill="none" d="M51.97,38.34 L 58.55 37.8"/>
  <path fill="none" d="M61.39,60.77 L 61.63 62.02"/>
  <path fill="none" d="M62.25,60.91 L 61.63 62.02"/>
  <path fill="none" d="M63.2,52.53 L 61.63 62.02"/>
  <path fill="none" d="M55.71,48.19 L 54.45 48.03"/>
  <path fill="none" d="M55.31,48.96 L 54.45 48.03"/>
  <path fill="none" d="M63.2,52.53 L 54.45 48.03"/>
  <path fill="none" d="M69.31,79.88 L 69.79 81.05"/>
  <path fill="none" d="M70.18,79.84 L 69.79 81.05"/>
  <path fill="none" d="M69.48,73.39 L 69.79 81.05"/>
  <path fill="none" d="M63.18,64.57 L 62.1 63.9"/>
  <path fill="none" d="M62.49,65.11 L 62.1 63.9"/>
  <path fill="none" d="M69.48,73.39 L 62.1 63.9"/>
  <path fill="none" d="M44.66,47.08 L 43.46 47.52"/>
  <path fill="none" d="M44.65,47.95 L 43.46 47.52"/>
  <path fill="none" d="M53.5,47.55 L 43.46 47.52"/>
  <path fill="none" d="M52.33,48.9 L 52.17 50.16"/>
  <path fill="none" d="M53.1,49.29 L 52.17 50.16"/>
  <path fill="none" d="M53.5,47.55 L 52.17 50.16"/>
  <path fill="none" d="M46.99,47.6 L 45.83 48.13"/>
  <path fill="none" d="M47.05,48.47 L 45.83 48.13"/>
  <path fill="none" d="M53.5,47.55 L 45.83 48.13"/>
  <path fill="none" d="M61,51.89 L 62.26 52.05"/>
  <path fill="none" d="M61.39,51.12 L 62.26 52.05"/>
  <path fill="none" d="M53.5,47.55 L 62.26 52.05"/>
  <path fill="none" d="M65.57,26.77 L 65.72 25.51"/>
  <path fill="none" d="M64.79,26.38 L 65.72 25.51"/>
  <path fill="none" d="M59.61,37.72 L 65.72 25.51"/>
  <path fill="none" d="M52.66,50.98 L 52.53 52.25"/>
  <path fill="none" d="M53.44,51.36 L 52.53 52.25"/>
  <path fill="none" d="M59.61,37.72 L 52.53 52.25"/>
  <path fill="none" d="M54.18,37.72 L 53.02 38.25"/>
  <path fill="none" d="M54.25,38.59 L 53.02 38.25"/>
  <path fill="none" d="M59.61,37.72 L 53.02 38.25"/>
  <path fill="none" d="M53.97,58.8 L 52.8 59.31"/>
  <path fill="none" d="M54.02,59.66 L 52.8 59.31"/>
  <path fill="none" d="M61.57,58.73 L 52.8 59.31"/>
  <path fill="none" d="M53.74,52.13 L 52.53 51.75"/>
  <path fill="none" d="M53.21,52.82 L 52.53 51.75"/>
  <path fill="none" d="M61.57,58.73 L 52.53 51.75"/>
  <path fill="none" d="M68.49,66.18 L 69.64 66.7"/>
  <path fill="none" d="M69.1,65.56 L 69.64 66.7"/>
  <path fill="none" d="M61.57,58.73 L 69.64 66.7"/>
  <path fill="none" d="M34.99,74.73 L 36.24 74.51"/>
  <path fill="none" d="M35.15,73.88 L 36.24 74.51"/>
  <path fill="none" d="M26.52,72.78 L 36.24 74.51"/>
  <path fill="none" d="M22.54,70.88 L 21.27 70.88"/>
  <path fill="none" d="M22.24,71.7 L 21.27 70.88"/>
  <path fill="none" d="M26.52,72.78 L 21.27 70.88"/>
  <path fill="none" d="M29.63,64.76 L 29.6 63.49"/>
  <path fill="none" d="M28.81,64.48 L 29.6 63.49"/>
  <path fill="none" d="M26.52,72.78 L 29.6 63.49"/>
  <path fill="none" d="M27.79,75.74 L 28.78 76.54"/>
  <path fill="none" d="M28.54,75.29 L 28.78 76.54"/>
  <path fill="none" d="M26.52,72.78 L 28.78 76.54"/>
  <path fill="none" d="M49.62,44.96 L 49.37 43.71"/>
  <path fill="none" d="M48.76,44.83 L 49.37 43.71"/>
  <path fill="none" d="M48.05,52.48 L 49.37 43.71"/>
  <path fill="none" d="M46.02,60.07 L 46.2 61.32"/>
  <path fill="none" d="M46.87,60.24 L 46.2 61.32"/>
  <path fill="none" d="M48.05,52.48 L 46.2 61.32"/>
  <path fill="none" d="M44.79,55.81 L 44.38 57.01"/>
  <path fill="none" d="M45.47,56.35 L 44.38 57.01"/>
  <path fill="none" d="M48.05,52.48 L 44.38 57.01"/>
  <path fill="none" d="M45.23,53.69 L 44.44 54.68"/>
  <path fill="none" d="M45.68,54.43 L 44.44 54.68"/>
  <path fill="none" d="M48.05,52.48 L 44.44 54.68"/>
  <path fill="none" d="M30.9,59.66 L 31.9 60.44"/>
  <path fill="none" d="M31.64,59.19 L 31.9 60.44"/>
  <path fill="none" d="M28.1,54.38 L 31.9 60.44"/>
  <path fill="none" d="M27.47,61.09 L 27.87 62.3"/>
  <path fill="none" d="M28.34,61.12 L 27.87 62.3"/>
  <path fill="none" d="M28.1,54.38 L 27.87 62.3"/>
  <path fill="none" d="M19.31,46.39 L 18.12 45.96"/>
  <path fill="none" d="M18.75,47.06 L 18.12 45.96"/>
  <path fill="none" d="M28.1,54.38 L 18.12 45.96"/>
  <path fill="none" d="M41.26,55.54 L 42.48 55.17"/>
  <path fill="none" d="M41.31,54.67 L 42.48 55.17"/>
  <path fill="none" d="M28.1,54.38 L 42.48 55.17"/>
  <path fill="none" d="M41.34,66.36 L 40.15 66.8"/>
  <path fill="none" d="M41.34,67.23 L 40.15 66.8"/>
  <path fill="none" d="M46.85,66.74 L 40.15 66.8"/>
  <path fill="none" d="M48.67,67.48 L 49.92 67.24"/>
  <path fill="none" d="M48.81,66.62 L 49.92 67.24"/>
  <path fill="none" d="M46.85,66.74 L 49.92 67.24"/>
  <path fill="none" d="M42.53,74.19 L 42.37 75.45"/>
  <path fill="none" d="M43.31,74.58 L 42.37 75.45"/>
  <path fill="none" d="M46.85,66.74 L 42.37 75.45"/>
  <path fill="none" d="M51.66,55.45 L 51.68 54.18"/>
  <path fill="none" d="M50.85,55.14 L 51.68 54.18"/>
  <path fill="none" d="M46.85,66.74 L 51.68 54.18"/>
  <path fill="none" d="M37.59,83.53 L 37.91 82.3"/>
  <path fill="none" d="M36.88,83.04 L 37.91 82.3"/>
  <path fill="none" d="M33.88,88.16 L 37.91 82.3"/>
  <path fill="none" d="M35.06,81.75 L 34.77 80.51"/>
  <path fill="none" d="M34.2,81.65 L 34.77 80.51"/>
  <path fill="none" d="M33.88,88.16 L 34.77 80.51"/>
  <path fill="none" d="M43.4,37.5 L 44.67 37.43"/>
  <path fill="none" d="M43.66,36.66 L 44.67 37.43"/>
  <path fill="none" d="M36.07,34.79 L 44.67 37.43"/>
  <path fill="none" d="M31.72,43.15 L 31.61 44.42"/>
  <path fill="none" d="M32.51,43.52 L 31.61 44.42"/>
  <path fill="none" d="M36.07,34.79 L 31.61 44.42"/>
  <path fill="none" d="M41.24,66.03 L 40.13 66.65"/>
  <path fill="none" d="M41.38,66.89 L 40.13 66.65"/>
  <path fill="none" d="M49.76,65.14 L 40.13 66.65"/>
  <path fill="none" d="M41.99,64.62 L 40.79 65.04"/>
  <path fill="none" d="M41.98,65.49 L 40.79 65.04"/>
  <path fill="none" d="M49.76,65.14 L 40.79 65.04"/>
  <path fill="none" d="M48.37,73.04 L 48.66 74.27"/>
  <path fill="none" d="M49.23,73.14 L 48.66 74.27"/>
  <path fill="none" d="M49.76,65.14 L 48.66 74.27"/>
  <path fill="none" d="M52.06,55.49 L 51.86 54.24"/>
  <path fill="none" d="M51.21,55.33 L 51.86 54.24"/>
  <path fill="none" d="M49.76,65.14 L 51.86 54.24"/>
  <path fill="none" d="M59.31,63.88 L 60.41 63.25"/>
  <path fill="none" d="M59.16,63.03 L 60.41 63.25"/>
  <path fill="none" d="M49.76,65.14 L 60.41 63.25"/>
  <path fill="none" d="M40.11,47.52 L 41.36 47.32"/>
  <path fill="none" d="M40.27,46.67 L 41.36 47.32"/>
  <path fill="none" d="M31.17,45.38 L 41.36 47.32"/>
  <path fill="none" d="M25.81,36.94 L 24.77 36.21"/>
  <path fill="none" d="M25.1,37.43 L 24.77 36.21"/>
  <path fill="none" d="M31.17,45.38 L 24.77 36.21"/>
  <path fill="none" d="M28.18,44.7 L 26.95 45.04"/>
  <path fill="none" d="M28.11,45.57 L 26.95 45.04"/>
  <path fill="none" d="M31.17,45.38 L 26.95 45.04"/>
  <path fill="none" d="M33.31,61.92 L 33.93 63.03"/>
  <path fill="none" d="M34.17,61.79 L 33.93 63.03"/>
  <path fill="none" d="M31.17,45.38 L 33.93 63.03"/>
  <path fill="none" d="M35.52,37.02 L 35.62 35.75"/>
  <path fill="none" d="M34.73,36.65 L 35.62 35.75"/>
  <path fill="none" d="M31.17,45.38 L 35.62 35.75"/>
  <path fill="none" d="M25.51,43.04 L 24.24 43.08"/>
  <path fill="none" d="M25.24,43.87 L 24.24 43.08"/>
  <path fill="none" d="M31.17,45.38 L 24.24 43.08"/>
  <path fill="none" d="M60.11,56.5 L 58.85 56.68"/>
  <path fill="none" d="M59.93,57.35 L 58.85 56.68"/>
  <path fill="none" d="M67.3,58.46 L 58.85 56.68"/>
  <path fill="none" d="M62.96,61.33 L 62.29 62.41"/>
  <path fill="none" d="M63.49,62.01 L 62.29 62.41"/>
  <path fill="none" d="M67.3,58.46 L 62.29 62.41"/>
  <path fill="none" d="M27.64,46.84 L 28.84 47.25"/>
  <path fill="none" d="M28.19,46.16 L 28.84 47.25"/>
  <path fill="none" d="M23.23,42.74 L 28.84 47.25"/>
  <path fill="none" d="M22.63,46.79 L 23.01 48"/>
  <path fill="none" d="M23.5,46.83 L 23.01 48"/>
  <path fill="none" d="M23.23,42.74 L 23.01 48"/>
  <path fill="none" d="M28.89,45.08 L 30.16 45.04"/>
  <path fill="none" d="M29.17,44.26 L 30.16 45.04"/>
  <path fill="none" d="M23.23,42.74 L 30.16 45.04"/>
  <path fill="none" d="M58.93,79.21 L 60.13 79.62"/>
  <path fill="none" d="M59.48,78.53 L 60.13 79.62"/>
  <path fill="none" d="M51.3,72.49 L 60.13 79.62"/>
  <path fill="none" d="M52.11,78.33 L 52.78 79.4"/>
  <path fill="none" d="M52.96,78.15 L 52.78 79.4"/>
  <path fill="none" d="M51.3,72.49 L 52.78 79.4"/>
  <path fill="none" d="M44.69,73.49 L 43.61 74.17"/>
  <path fill="none" d="M44.87,74.34 L 43.61 74.17"/>
  <path fill="none" d="M51.3,72.49 L 43.61 74.17"/>
  <path fill="none" d="M45.13,59.63 L 44.2 58.77"/>
  <path fill="none" d="M44.36,60.03 L 44.2 58.77"/>
  <path fill="none" d="M51.3,72.49 L 44.2 58.77"/>
  <path fill="none" d="M51.55,69.63 L 51.03 68.47"/>
  <path fill="none" d="M50.68,69.69 L 51.03 68.47"/>
  <path fill="none" d="M51.3,72.49 L 51.03 68.47"/>
  <path fill="none" d="M55.54,56.7 L 56.76 56.37"/>
  <path fill="none" d="M55.61,55.84 L 56.76 56.37"/>
  <path fill="none" d="M43.53,55.23 L 56.76 56.37"/>
  <path fill="none" d="M44.84,60.37 L 45.64 61.36"/>
  <path fill="none" d="M45.66,60.09 L 45.64 61.36"/>
  <path fill="none" d="M43.53,55.23 L 45.64 61.36"/>
  <path fill="none" d="M46.35,54.02 L 47.15 53.03"/>
  <path fill="none" d="M45.9,53.28 L 47.15 53.03"/>
  <path fill="none" d="M43.53,55.23 L 47.15 53.03"/>
  <path fill="none" d="M30.37,54.07 L 29.16 54.43"/>
  <path fill="none" d="M30.33,54.93 L 29.16 54.43"/>
  <path fill="none" d="M43.53,55.23 L 29.16 54.43"/>
  <path fill="none" d="M39.17,50.54 L 40.02 51.49"/>
  <path fill="none" d="M39.98,50.22 L 40.02 51.49"/>
  <path fill="none" d="M36.95,43.8 L 40.02 51.49"/>
  <path fill="none" d="M44.14,43.64 L 45.29 43.11"/>
  <path fill="none" d="M44.06,42.78 L 45.29 43.11"/>
  <path fill="none" d="M36.95,43.8 L 45.29 43.11"/>
  <path fill="none" d="M28.09,44.29 L 26.95 44.84"/>
  <path fill="none" d="M28.18,45.15 L 26.95 44.84"/>
  <path fill="none" d="M36.95,43.8 L 26.95 44.84"/>
  <path fill="none" d="M42.6,47.48 L 43.85 47.69"/>
  <path fill="none" d="M43.03,46.72 L 43.85 47.69"/>
  <path fill="none" d="M36.95,43.8 L 43.85 47.69"/>
</g>
<g stroke="#BBBBBB" fill="#AAAAFF" id="fig-d58c8ca34abf45c099870a22545ade63-element-2">
  <circle cx="51.75" cy="59.38" r="1.06"/>
  <circle cx="39.09" cy="66.81" r="1.06"/>
  <circle cx="69.84" cy="82.11" r="1.06"/>
  <circle cx="43.16" cy="62.68" r="1.06"/>
  <circle cx="37.29" cy="74.7" r="1.06"/>
  <circle cx="70.84" cy="16.63" r="1.06"/>
  <circle cx="40.41" cy="52.47" r="1.06"/>
  <circle cx="54.81" cy="52.28" r="1.06"/>
  <circle cx="42.4" cy="47.51" r="1.06"/>
  <circle cx="29.49" cy="53.33" r="1.06"/>
  <circle cx="36.72" cy="93.13" r="1.06"/>
  <circle cx="20.27" cy="70.52" r="1.06"/>
  <circle cx="38.51" cy="81.43" r="1.06"/>
  <circle cx="24.17" cy="35.34" r="1.06"/>
  <circle cx="66.19" cy="24.56" r="1.06"/>
  <circle cx="60.95" cy="80.29" r="1.06"/>
  <circle cx="51.69" cy="51.1" r="1.06"/>
  <circle cx="44.97" cy="59.1" r="1.06"/>
  <circle cx="53.61" cy="44.76" r="1.06"/>
  <circle cx="31.7" cy="51.74" r="1.06"/>
  <circle cx="49.22" cy="71.96" r="1.06"/>
  <circle cx="65" cy="69.47" r="1.06"/>
  <circle cx="31.51" cy="39.33" r="1.06"/>
  <circle cx="57.82" cy="56.46" r="1.06"/>
  <circle cx="45.68" cy="37.74" r="1.06"/>
  <circle cx="46.34" cy="43.02" r="1.06"/>
  <circle cx="52.4" cy="31.51" r="1.06"/>
  <circle cx="25.9" cy="44.95" r="1.06"/>
  <circle cx="53.72" cy="76.81" r="1.06"/>
  <circle cx="26.56" cy="57.47" r="1.06"/>
  <circle cx="49.53" cy="42.67" r="1.06"/>
  <circle cx="29.67" cy="47.91" r="1.06"/>
  <circle cx="81.59" cy="8.47" r="1.06"/>
  <circle cx="32.46" cy="61.33" r="1.06"/>
  <circle cx="27.84" cy="63.35" r="1.06"/>
  <circle cx="44.78" cy="48.21" r="1.06"/>
  <circle cx="53.01" cy="80.44" r="1.06"/>
  <circle cx="74.89" cy="73.76" r="1.06"/>
  <circle cx="35.41" cy="54.91" r="1.06"/>
  <circle cx="34.46" cy="82.91" r="1.06"/>
  <circle cx="50.39" cy="26.83" r="1.06"/>
  <circle cx="32.04" cy="65.97" r="1.06"/>
  <circle cx="45.98" cy="62.36" r="1.06"/>
  <circle cx="20.36" cy="63.18" r="1.06"/>
  <circle cx="8.47" cy="39.42" r="1.06"/>
  <circle cx="43.35" cy="71.04" r="1.06"/>
  <circle cx="42.58" cy="74.4" r="1.06"/>
  <circle cx="38.84" cy="50.41" r="1.06"/>
  <circle cx="29.93" cy="62.48" r="1.06"/>
  <circle cx="70.4" cy="67.45" r="1.06"/>
  <circle cx="43.71" cy="57.83" r="1.06"/>
  <circle cx="55.63" cy="84.24" r="1.06"/>
  <circle cx="16.19" cy="59.5" r="1.06"/>
  <circle cx="56.9" cy="66.56" r="1.06"/>
  <circle cx="50.96" cy="67.41" r="1.06"/>
  <circle cx="37.06" cy="50.16" r="1.06"/>
  <circle cx="37.36" cy="56.44" r="1.06"/>
  <circle cx="41.44" cy="41.07" r="1.06"/>
  <circle cx="83.76" cy="69.87" r="1.06"/>
  <circle cx="40.85" cy="43.17" r="1.06"/>
  <circle cx="93.13" cy="71.83" r="1.06"/>
  <circle cx="46.51" cy="55.32" r="1.06"/>
  <circle cx="29.99" cy="72.35" r="1.06"/>
  <circle cx="47.18" cy="89.04" r="1.06"/>
  <circle cx="45.82" cy="48.61" r="1.06"/>
  <circle cx="39.73" cy="65.03" r="1.06"/>
  <circle cx="24.8" cy="83" r="1.06"/>
  <circle cx="41.89" cy="76.39" r="1.06"/>
  <circle cx="48.53" cy="75.32" r="1.06"/>
  <circle cx="52.06" cy="53.2" r="1.06"/>
  <circle cx="38.18" cy="69.47" r="1.06"/>
  <circle cx="34.89" cy="79.46" r="1.06"/>
  <circle cx="43.41" cy="60" r="1.06"/>
  <circle cx="17.31" cy="45.27" r="1.06"/>
  <circle cx="22.97" cy="49.06" r="1.06"/>
  <circle cx="55.81" cy="31.87" r="1.06"/>
  <circle cx="75.17" cy="15.07" r="1.06"/>
  <circle cx="61.45" cy="63.06" r="1.06"/>
  <circle cx="57.33" cy="70.42" r="1.06"/>
  <circle cx="29.33" cy="77.44" r="1.06"/>
  <circle cx="34.09" cy="64.08" r="1.06"/>
  <circle cx="51.97" cy="38.34" r="1.06"/>
  <circle cx="63.2" cy="52.53" r="1.06"/>
  <circle cx="69.48" cy="73.39" r="1.06"/>
  <circle cx="53.5" cy="47.55" r="1.06"/>
  <circle cx="59.61" cy="37.72" r="1.06"/>
  <circle cx="61.57" cy="58.73" r="1.06"/>
  <circle cx="26.52" cy="72.78" r="1.06"/>
  <circle cx="48.05" cy="52.48" r="1.06"/>
  <circle cx="28.1" cy="54.38" r="1.06"/>
  <circle cx="46.85" cy="66.74" r="1.06"/>
  <circle cx="33.88" cy="88.16" r="1.06"/>
  <circle cx="36.07" cy="34.79" r="1.06"/>
  <circle cx="49.76" cy="65.14" r="1.06"/>
  <circle cx="31.17" cy="45.38" r="1.06"/>
  <circle cx="67.3" cy="58.46" r="1.06"/>
  <circle cx="23.23" cy="42.74" r="1.06"/>
  <circle cx="51.3" cy="72.49" r="1.06"/>
  <circle cx="43.53" cy="55.23" r="1.06"/>
  <circle cx="36.95" cy="43.8" r="1.06"/>
</g>
<g font-size="4" stroke="none" fill="#000000" id="fig-d58c8ca34abf45c099870a22545ade63-element-3">
  <text x="51.75" y="59.38" text-anchor="middle" dy="0.35em">100</text>
  <text x="39.09" y="66.81" text-anchor="middle" dy="0.35em">99</text>
  <text x="69.84" y="82.11" text-anchor="middle" dy="0.35em">98</text>
  <text x="43.16" y="62.68" text-anchor="middle" dy="0.35em">97</text>
  <text x="37.29" y="74.7" text-anchor="middle" dy="0.35em">96</text>
  <text x="70.84" y="16.63" text-anchor="middle" dy="0.35em">95</text>
  <text x="40.41" y="52.47" text-anchor="middle" dy="0.35em">94</text>
  <text x="54.81" y="52.28" text-anchor="middle" dy="0.35em">93</text>
  <text x="42.4" y="47.51" text-anchor="middle" dy="0.35em">92</text>
  <text x="29.49" y="53.33" text-anchor="middle" dy="0.35em">91</text>
  <text x="36.72" y="93.13" text-anchor="middle" dy="0.35em">90</text>
  <text x="20.27" y="70.52" text-anchor="middle" dy="0.35em">89</text>
  <text x="38.51" y="81.43" text-anchor="middle" dy="0.35em">88</text>
  <text x="24.17" y="35.34" text-anchor="middle" dy="0.35em">87</text>
  <text x="66.19" y="24.56" text-anchor="middle" dy="0.35em">86</text>
  <text x="60.95" y="80.29" text-anchor="middle" dy="0.35em">85</text>
  <text x="51.69" y="51.1" text-anchor="middle" dy="0.35em">84</text>
  <text x="44.97" y="59.1" text-anchor="middle" dy="0.35em">83</text>
  <text x="53.61" y="44.76" text-anchor="middle" dy="0.35em">82</text>
  <text x="31.7" y="51.74" text-anchor="middle" dy="0.35em">81</text>
  <text x="49.22" y="71.96" text-anchor="middle" dy="0.35em">80</text>
  <text x="65" y="69.47" text-anchor="middle" dy="0.35em">79</text>
  <text x="31.51" y="39.33" text-anchor="middle" dy="0.35em">78</text>
  <text x="57.82" y="56.46" text-anchor="middle" dy="0.35em">77</text>
  <text x="45.68" y="37.74" text-anchor="middle" dy="0.35em">76</text>
  <text x="46.34" y="43.02" text-anchor="middle" dy="0.35em">75</text>
  <text x="52.4" y="31.51" text-anchor="middle" dy="0.35em">74</text>
  <text x="25.9" y="44.95" text-anchor="middle" dy="0.35em">73</text>
  <text x="53.72" y="76.81" text-anchor="middle" dy="0.35em">72</text>
  <text x="26.56" y="57.47" text-anchor="middle" dy="0.35em">71</text>
  <text x="49.53" y="42.67" text-anchor="middle" dy="0.35em">70</text>
  <text x="29.67" y="47.91" text-anchor="middle" dy="0.35em">69</text>
  <text x="81.59" y="8.47" text-anchor="middle" dy="0.35em">68</text>
  <text x="32.46" y="61.33" text-anchor="middle" dy="0.35em">67</text>
  <text x="27.84" y="63.35" text-anchor="middle" dy="0.35em">66</text>
  <text x="44.78" y="48.21" text-anchor="middle" dy="0.35em">65</text>
  <text x="53.01" y="80.44" text-anchor="middle" dy="0.35em">64</text>
  <text x="74.89" y="73.76" text-anchor="middle" dy="0.35em">63</text>
  <text x="35.41" y="54.91" text-anchor="middle" dy="0.35em">62</text>
  <text x="34.46" y="82.91" text-anchor="middle" dy="0.35em">61</text>
  <text x="50.39" y="26.83" text-anchor="middle" dy="0.35em">60</text>
  <text x="32.04" y="65.97" text-anchor="middle" dy="0.35em">59</text>
  <text x="45.98" y="62.36" text-anchor="middle" dy="0.35em">58</text>
  <text x="20.36" y="63.18" text-anchor="middle" dy="0.35em">57</text>
  <text x="8.47" y="39.42" text-anchor="middle" dy="0.35em">56</text>
  <text x="43.35" y="71.04" text-anchor="middle" dy="0.35em">55</text>
  <text x="42.58" y="74.4" text-anchor="middle" dy="0.35em">54</text>
  <text x="38.84" y="50.41" text-anchor="middle" dy="0.35em">53</text>
  <text x="29.93" y="62.48" text-anchor="middle" dy="0.35em">52</text>
  <text x="70.4" y="67.45" text-anchor="middle" dy="0.35em">51</text>
  <text x="43.71" y="57.83" text-anchor="middle" dy="0.35em">50</text>
  <text x="55.63" y="84.24" text-anchor="middle" dy="0.35em">49</text>
  <text x="16.19" y="59.5" text-anchor="middle" dy="0.35em">48</text>
  <text x="56.9" y="66.56" text-anchor="middle" dy="0.35em">47</text>
  <text x="50.96" y="67.41" text-anchor="middle" dy="0.35em">46</text>
  <text x="37.06" y="50.16" text-anchor="middle" dy="0.35em">45</text>
  <text x="37.36" y="56.44" text-anchor="middle" dy="0.35em">44</text>
  <text x="41.44" y="41.07" text-anchor="middle" dy="0.35em">43</text>
  <text x="83.76" y="69.87" text-anchor="middle" dy="0.35em">42</text>
  <text x="40.85" y="43.17" text-anchor="middle" dy="0.35em">41</text>
  <text x="93.13" y="71.83" text-anchor="middle" dy="0.35em">40</text>
  <text x="46.51" y="55.32" text-anchor="middle" dy="0.35em">39</text>
  <text x="29.99" y="72.35" text-anchor="middle" dy="0.35em">38</text>
  <text x="47.18" y="89.04" text-anchor="middle" dy="0.35em">37</text>
  <text x="45.82" y="48.61" text-anchor="middle" dy="0.35em">36</text>
  <text x="39.73" y="65.03" text-anchor="middle" dy="0.35em">35</text>
  <text x="24.8" y="83" text-anchor="middle" dy="0.35em">34</text>
  <text x="41.89" y="76.39" text-anchor="middle" dy="0.35em">33</text>
  <text x="48.53" y="75.32" text-anchor="middle" dy="0.35em">32</text>
  <text x="52.06" y="53.2" text-anchor="middle" dy="0.35em">31</text>
  <text x="38.18" y="69.47" text-anchor="middle" dy="0.35em">30</text>
  <text x="34.89" y="79.46" text-anchor="middle" dy="0.35em">29</text>
  <text x="43.41" y="60" text-anchor="middle" dy="0.35em">28</text>
  <text x="17.31" y="45.27" text-anchor="middle" dy="0.35em">27</text>
  <text x="22.97" y="49.06" text-anchor="middle" dy="0.35em">26</text>
  <text x="55.81" y="31.87" text-anchor="middle" dy="0.35em">25</text>
  <text x="75.17" y="15.07" text-anchor="middle" dy="0.35em">24</text>
  <text x="61.45" y="63.06" text-anchor="middle" dy="0.35em">23</text>
  <text x="57.33" y="70.42" text-anchor="middle" dy="0.35em">22</text>
  <text x="29.33" y="77.44" text-anchor="middle" dy="0.35em">21</text>
  <text x="34.09" y="64.08" text-anchor="middle" dy="0.35em">20</text>
  <text x="51.97" y="38.34" text-anchor="middle" dy="0.35em">19</text>
  <text x="63.2" y="52.53" text-anchor="middle" dy="0.35em">18</text>
  <text x="69.48" y="73.39" text-anchor="middle" dy="0.35em">17</text>
  <text x="53.5" y="47.55" text-anchor="middle" dy="0.35em">16</text>
  <text x="59.61" y="37.72" text-anchor="middle" dy="0.35em">15</text>
  <text x="61.57" y="58.73" text-anchor="middle" dy="0.35em">14</text>
  <text x="26.52" y="72.78" text-anchor="middle" dy="0.35em">13</text>
  <text x="48.05" y="52.48" text-anchor="middle" dy="0.35em">12</text>
  <text x="28.1" y="54.38" text-anchor="middle" dy="0.35em">11</text>
  <text x="46.85" y="66.74" text-anchor="middle" dy="0.35em">10</text>
  <text x="33.88" y="88.16" text-anchor="middle" dy="0.35em">9</text>
  <text x="36.07" y="34.79" text-anchor="middle" dy="0.35em">8</text>
  <text x="49.76" y="65.14" text-anchor="middle" dy="0.35em">7</text>
  <text x="31.17" y="45.38" text-anchor="middle" dy="0.35em">6</text>
  <text x="67.3" y="58.46" text-anchor="middle" dy="0.35em">5</text>
  <text x="23.23" y="42.74" text-anchor="middle" dy="0.35em">4</text>
  <text x="51.3" y="72.49" text-anchor="middle" dy="0.35em">3</text>
  <text x="43.53" y="55.23" text-anchor="middle" dy="0.35em">2</text>
  <text x="36.95" y="43.8" text-anchor="middle" dy="0.35em">1</text>
</g>
</svg>
