<?xml version="1.0" encoding="UTF-8"?>
<svg xmlns="http://www.w3.org/2000/svg"
     xmlns:xlink="http://www.w3.org/1999/xlink"
     version="1.2"
     width="101.6mm" height="101.6mm" viewBox="0 0 101.6 101.6"
     stroke="none"
     fill="#000000"
     stroke-width="0.3"
     font-size="3.88"
>
<g stroke-width="0.3" stroke="#BBBBBB" id="fig-4c0ecbb199334c63bbb74cddaecd7017-element-1">
  <path fill="none" d="M72,59.21 L 70.75 59"/>
  <path fill="none" d="M71.57,59.96 L 70.75 59"/>
  <path fill="none" d="M81.67,65.21 L 70.75 59"/>
  <path fill="none" d="M77.12,36.55 L 76.49 35.45"/>
  <path fill="none" d="M76.27,36.7 L 76.49 35.45"/>
  <path fill="none" d="M81.67,65.21 L 76.49 35.45"/>
  <path fill="none" d="M58.52,79.24 L 57.74 80.25"/>
  <path fill="none" d="M58.99,79.98 L 57.74 80.25"/>
  <path fill="none" d="M81.67,65.21 L 57.74 80.25"/>
  <path fill="none" d="M44.68,45.44 L 45.18 44.27"/>
  <path fill="none" d="M44.05,44.84 L 45.18 44.27"/>
  <path fill="none" d="M23.54,67.36 L 45.18 44.27"/>
  <path fill="none" d="M23.8,73.77 L 24.36 74.91"/>
  <path fill="none" d="M24.66,73.68 L 24.36 74.91"/>
  <path fill="none" d="M23.54,67.36 L 24.36 74.91"/>
  <path fill="none" d="M31.97,75.69 L 33.14 76.18"/>
  <path fill="none" d="M32.55,75.05 L 33.14 76.18"/>
  <path fill="none" d="M23.54,67.36 L 33.14 76.18"/>
  <path fill="none" d="M69.01,48.76 L 70.06 48.05"/>
  <path fill="none" d="M68.8,47.91 L 70.06 48.05"/>
  <path fill="none" d="M44.52,54.3 L 70.06 48.05"/>
  <path fill="none" d="M32.23,63.99 L 31.59 65.09"/>
  <path fill="none" d="M32.79,64.66 L 31.59 65.09"/>
  <path fill="none" d="M44.52,54.3 L 31.59 65.09"/>
  <path fill="none" d="M67.09,70.44 L 68.32 70.76"/>
  <path fill="none" d="M67.58,69.72 L 68.32 70.76"/>
  <path fill="none" d="M44.52,54.3 L 68.32 70.76"/>
  <path fill="none" d="M57.3,29.66 L 57.7 28.45"/>
  <path fill="none" d="M56.62,29.12 L 57.7 28.45"/>
  <path fill="none" d="M45.91,43.5 L 57.7 28.45"/>
  <path fill="none" d="M57.2,39.43 L 58.15 38.58"/>
  <path fill="none" d="M56.88,38.62 L 58.15 38.58"/>
  <path fill="none" d="M45.91,43.5 L 58.15 38.58"/>
  <path fill="none" d="M27.95,48 L 26.92 48.74"/>
  <path fill="none" d="M28.18,48.84 L 26.92 48.74"/>
  <path fill="none" d="M45.91,43.5 L 26.92 48.74"/>
  <path fill="none" d="M14.43,51.32 L 14.13 52.56"/>
  <path fill="none" d="M15.15,51.8 L 14.13 52.56"/>
  <path fill="none" d="M30.71,27.66 L 14.13 52.56"/>
  <path fill="none" d="M29.94,55.94 L 30.36 57.14"/>
  <path fill="none" d="M30.81,55.95 L 30.36 57.14"/>
  <path fill="none" d="M30.71,27.66 L 30.36 57.14"/>
  <path fill="none" d="M61.64,22.31 L 62.74 21.67"/>
  <path fill="none" d="M61.48,21.46 L 62.74 21.67"/>
  <path fill="none" d="M30.71,27.66 L 62.74 21.67"/>
  <path fill="none" d="M49.71,72.81 L 50.27 73.95"/>
  <path fill="none" d="M50.58,72.72 L 50.27 73.95"/>
  <path fill="none" d="M48.78,59.46 L 50.27 73.95"/>
  <path fill="none" d="M68.73,78.49 L 69.9 78.98"/>
  <path fill="none" d="M69.32,77.85 L 69.9 78.98"/>
  <path fill="none" d="M48.78,59.46 L 69.9 78.98"/>
  <path fill="none" d="M27.21,30.04 L 26.15 29.34"/>
  <path fill="none" d="M26.52,30.56 L 26.15 29.34"/>
  <path fill="none" d="M48.78,59.46 L 26.15 29.34"/>
  <path fill="none" d="M21.29,72.32 L 20.78 73.48"/>
  <path fill="none" d="M21.92,72.92 L 20.78 73.48"/>
  <path fill="none" d="M35.52,58.08 L 20.78 73.48"/>
  <path fill="none" d="M54.68,46.31 L 55.45 45.3"/>
  <path fill="none" d="M54.21,45.58 L 55.45 45.3"/>
  <path fill="none" d="M35.52,58.08 L 55.45 45.3"/>
  <path fill="none" d="M38.85,37.47 L 38.58 36.22"/>
  <path fill="none" d="M37.98,37.35 L 38.58 36.22"/>
  <path fill="none" d="M35.52,58.08 L 38.58 36.22"/>
  <path fill="none" d="M23.31,58.27 L 23.4 57"/>
  <path fill="none" d="M22.52,57.91 L 23.4 57"/>
  <path fill="none" d="M19.84,64.86 L 23.4 57"/>
  <path fill="none" d="M22.17,45.93 L 21.86 44.7"/>
  <path fill="none" d="M21.3,45.84 L 21.86 44.7"/>
  <path fill="none" d="M19.84,64.86 L 21.86 44.7"/>
  <path fill="none" d="M33.81,55.87 L 34.55 54.84"/>
  <path fill="none" d="M33.32,55.15 L 34.55 54.84"/>
  <path fill="none" d="M19.84,64.86 L 34.55 54.84"/>
  <path fill="none" d="M83.61,49.14 L 84.25 50.23"/>
  <path fill="none" d="M84.46,48.98 L 84.25 50.23"/>
  <path fill="none" d="M81.81,36.95 L 84.25 50.23"/>
  <path fill="none" d="M60.6,28.05 L 59.33 28.01"/>
  <path fill="none" d="M60.28,28.86 L 59.33 28.01"/>
  <path fill="none" d="M81.81,36.95 L 59.33 28.01"/>
  <path fill="none" d="M67.58,54.27 L 67.18 55.48"/>
  <path fill="none" d="M68.26,54.81 L 67.18 55.48"/>
  <path fill="none" d="M81.81,36.95 L 67.18 55.48"/>
  <path fill="none" d="M23.99,81.63 L 22.72 81.57"/>
  <path fill="none" d="M23.65,82.43 L 22.72 81.57"/>
  <path fill="none" d="M50.23,93.13 L 22.72 81.57"/>
  <path fill="none" d="M69.04,81.3 L 69.79 80.28"/>
  <path fill="none" d="M68.56,80.57 L 69.79 80.28"/>
  <path fill="none" d="M50.23,93.13 L 69.79 80.28"/>
  <path fill="none" d="M49.86,84.38 L 49.31 83.23"/>
  <path fill="none" d="M48.99,84.46 L 49.31 83.23"/>
  <path fill="none" d="M50.23,93.13 L 49.31 83.23"/>
  <path fill="none" d="M21.4,66.54 L 20.4 65.76"/>
  <path fill="none" d="M20.66,67 L 20.4 65.76"/>
  <path fill="none" d="M35.12,89.25 L 20.4 65.76"/>
  <path fill="none" d="M63.21,88.8 L 64.39 88.33"/>
  <path fill="none" d="M63.18,87.93 L 64.39 88.33"/>
  <path fill="none" d="M35.12,89.25 L 64.39 88.33"/>
  <path fill="none" d="M33.36,74.36 L 32.76 73.24"/>
  <path fill="none" d="M32.5,74.48 L 32.76 73.24"/>
  <path fill="none" d="M35.12,89.25 L 32.76 73.24"/>
  <path fill="none" d="M17.86,66.02 L 18.84 65.21"/>
  <path fill="none" d="M17.57,65.21 L 18.84 65.21"/>
  <path fill="none" d="M13.21,67.22 L 18.84 65.21"/>
  <path fill="none" d="M13.92,55.7 L 13.51 54.5"/>
  <path fill="none" d="M13.05,55.68 L 13.51 54.5"/>
  <path fill="none" d="M13.21,67.22 L 13.51 54.5"/>
  <path fill="none" d="M37.14,71.6 L 38.39 71.37"/>
  <path fill="none" d="M37.28,70.75 L 38.39 71.37"/>
  <path fill="none" d="M13.21,67.22 L 38.39 71.37"/>
  <path fill="none" d="M81.75,67.5 L 81.51 66.25"/>
  <path fill="none" d="M80.89,67.36 L 81.51 66.25"/>
  <path fill="none" d="M79.52,78.76 L 81.51 66.25"/>
  <path fill="none" d="M64.05,83.79 L 63.07 84.6"/>
  <path fill="none" d="M64.34,84.61 L 63.07 84.6"/>
  <path fill="none" d="M79.52,78.76 L 63.07 84.6"/>
  <path fill="none" d="M56.48,71.55 L 55.21 71.63"/>
  <path fill="none" d="M56.23,72.39 L 55.21 71.63"/>
  <path fill="none" d="M79.52,78.76 L 55.21 71.63"/>
  <path fill="none" d="M45.58,69.18 L 46.66 68.5"/>
  <path fill="none" d="M45.4,68.33 L 46.66 68.5"/>
  <path fill="none" d="M20.04,74.24 L 46.66 68.5"/>
  <path fill="none" d="M14.63,55.46 L 13.86 54.45"/>
  <path fill="none" d="M13.8,55.72 L 13.86 54.45"/>
  <path fill="none" d="M20.04,74.24 L 13.86 54.45"/>
  <path fill="none" d="M22.22,75.55 L 23.49 75.58"/>
  <path fill="none" d="M22.53,74.74 L 23.49 75.58"/>
  <path fill="none" d="M20.04,74.24 L 23.49 75.58"/>
  <path fill="none" d="M36.47,87.4 L 35.89 88.53"/>
  <path fill="none" d="M37.06,88.03 L 35.89 88.53"/>
  <path fill="none" d="M50.37,75.01 L 35.89 88.53"/>
  <path fill="none" d="M60.08,83.83 L 61.27 84.27"/>
  <path fill="none" d="M60.64,83.16 L 61.27 84.27"/>
  <path fill="none" d="M50.37,75.01 L 61.27 84.27"/>
  <path fill="none" d="M59.57,74.6 L 60.72 74.06"/>
  <path fill="none" d="M59.49,73.74 L 60.72 74.06"/>
  <path fill="none" d="M50.37,75.01 L 60.72 74.06"/>
  <path fill="none" d="M65.45,41.7 L 64.29 41.18"/>
  <path fill="none" d="M64.84,42.33 L 64.29 41.18"/>
  <path fill="none" d="M71.09,47.8 L 64.29 41.18"/>
  <path fill="none" d="M64.23,36.61 L 63.21 35.85"/>
  <path fill="none" d="M63.51,37.08 L 63.21 35.85"/>
  <path fill="none" d="M71.09,47.8 L 63.21 35.85"/>
  <path fill="none" d="M88.02,63.47 L 89.2 63.94"/>
  <path fill="none" d="M88.6,62.83 L 89.2 63.94"/>
  <path fill="none" d="M71.09,47.8 L 89.2 63.94"/>
  <path fill="none" d="M47.35,41.71 L 46.72 42.82"/>
  <path fill="none" d="M47.91,42.38 L 46.72 42.82"/>
  <path fill="none" d="M64.55,27.8 L 46.72 42.82"/>
  <path fill="none" d="M75.76,52.66 L 76.66 53.55"/>
  <path fill="none" d="M76.55,52.29 L 76.66 53.55"/>
  <path fill="none" d="M64.55,27.8 L 76.66 53.55"/>
  <path fill="none" d="M55.18,11.14 L 54.2 10.33"/>
  <path fill="none" d="M54.43,11.58 L 54.2 10.33"/>
  <path fill="none" d="M64.55,27.8 L 54.2 10.33"/>
  <path fill="none" d="M67.87,41.96 L 68.79 41.09"/>
  <path fill="none" d="M67.52,41.16 L 68.79 41.09"/>
  <path fill="none" d="M52.6,48.08 L 68.79 41.09"/>
  <path fill="none" d="M86.58,56.54 L 87.84 56.39"/>
  <path fill="none" d="M86.78,55.7 L 87.84 56.39"/>
  <path fill="none" d="M52.6,48.08 L 87.84 56.39"/>
  <path fill="none" d="M28.13,48.51 L 26.95 48.98"/>
  <path fill="none" d="M28.16,49.37 L 26.95 48.98"/>
  <path fill="none" d="M52.6,48.08 L 26.95 48.98"/>
  <path fill="none" d="M69.68,49.61 L 70.29 48.5"/>
  <path fill="none" d="M69.11,48.95 L 70.29 48.5"/>
  <path fill="none" d="M47.69,68.28 L 70.29 48.5"/>
  <path fill="none" d="M45.99,65.1 L 44.95 64.37"/>
  <path fill="none" d="M45.28,65.6 L 44.95 64.37"/>
  <path fill="none" d="M47.69,68.28 L 44.95 64.37"/>
  <path fill="none" d="M73.06,74.58 L 74.32 74.43"/>
  <path fill="none" d="M73.26,73.73 L 74.32 74.43"/>
  <path fill="none" d="M47.69,68.28 L 74.32 74.43"/>
  <path fill="none" d="M64.35,46.16 L 65.03 47.23"/>
  <path fill="none" d="M65.2,45.97 L 65.03 47.23"/>
  <path fill="none" d="M63.53,40.45 L 65.03 47.23"/>
  <path fill="none" d="M74.96,41.06 L 76.16 40.64"/>
  <path fill="none" d="M74.98,40.19 L 76.16 40.64"/>
  <path fill="none" d="M63.53,40.45 L 76.16 40.64"/>
  <path fill="none" d="M44.67,37.04 L 43.42 37.28"/>
  <path fill="none" d="M44.54,37.9 L 43.42 37.28"/>
  <path fill="none" d="M63.53,40.45 L 43.42 37.28"/>
  <path fill="none" d="M32.79,26.7 L 31.74 27.41"/>
  <path fill="none" d="M33,27.54 L 31.74 27.41"/>
  <path fill="none" d="M48.37,23.32 L 31.74 27.41"/>
  <path fill="none" d="M62.26,27.62 L 63.53 27.52"/>
  <path fill="none" d="M62.49,26.78 L 63.53 27.52"/>
  <path fill="none" d="M48.37,23.32 L 63.53 27.52"/>
  <path fill="none" d="M51.79,45.93 L 52.42 47.04"/>
  <path fill="none" d="M52.65,45.79 L 52.42 47.04"/>
  <path fill="none" d="M48.37,23.32 L 52.42 47.04"/>
  <path fill="none" d="M23.16,65.09 L 23.57 66.3"/>
  <path fill="none" d="M24.03,65.12 L 23.57 66.3"/>
  <path fill="none" d="M23.84,56.04 L 23.57 66.3"/>
  <path fill="none" d="M21.5,78.88 L 21.83 80.1"/>
  <path fill="none" d="M22.36,78.95 L 21.83 80.1"/>
  <path fill="none" d="M23.84,56.04 L 21.83 80.1"/>
  <path fill="none" d="M50.17,41.33 L 50.99 40.36"/>
  <path fill="none" d="M49.74,40.58 L 50.99 40.36"/>
  <path fill="none" d="M23.84,56.04 L 50.99 40.36"/>
  <path fill="none" d="M79.44,64.67 L 80.71 64.77"/>
  <path fill="none" d="M79.8,63.88 L 80.71 64.77"/>
  <path fill="none" d="M58.51,54.66 L 80.71 64.77"/>
  <path fill="none" d="M41.92,64.71 L 41.15 65.71"/>
  <path fill="none" d="M42.39,65.44 L 41.15 65.71"/>
  <path fill="none" d="M58.51,54.66 L 41.15 65.71"/>
  <path fill="none" d="M56.99,23.9 L 56.48 22.74"/>
  <path fill="none" d="M56.12,23.96 L 56.48 22.74"/>
  <path fill="none" d="M58.51,54.66 L 56.48 22.74"/>
  <path fill="none" d="M79.5,28.97 L 79.36 27.71"/>
  <path fill="none" d="M78.66,28.76 L 79.36 27.71"/>
  <path fill="none" d="M73.55,51.61 L 79.36 27.71"/>
  <path fill="none" d="M70.48,77.41 L 70.79 78.65"/>
  <path fill="none" d="M71.34,77.5 L 70.79 78.65"/>
  <path fill="none" d="M73.55,51.61 L 70.79 78.65"/>
  <path fill="none" d="M39,47.43 L 37.77 47.73"/>
  <path fill="none" d="M38.91,48.29 L 37.77 47.73"/>
  <path fill="none" d="M73.55,51.61 L 37.77 47.73"/>
  <path fill="none" d="M61.93,62.35 L 61.96 63.62"/>
  <path fill="none" d="M62.76,62.63 L 61.96 63.62"/>
  <path fill="none" d="M69.76,40.67 L 61.96 63.62"/>
  <path fill="none" d="M76.2,65.26 L 76.94 66.29"/>
  <path fill="none" d="M77.04,65.03 L 76.94 66.29"/>
  <path fill="none" d="M69.76,40.67 L 76.94 66.29"/>
  <path fill="none" d="M41.16,28.87 L 39.89 28.83"/>
  <path fill="none" d="M40.84,29.68 L 39.89 28.83"/>
  <path fill="none" d="M69.76,40.67 L 39.89 28.83"/>
  <path fill="none" d="M57.53,23.68 L 56.75 22.69"/>
  <path fill="none" d="M56.71,23.96 L 56.75 22.69"/>
  <path fill="none" d="M65.26,48.27 L 56.75 22.69"/>
  <path fill="none" d="M81.73,59.06 L 82.98 59.33"/>
  <path fill="none" d="M82.19,58.33 L 82.98 59.33"/>
  <path fill="none" d="M65.26,48.27 L 82.98 59.33"/>
  <path fill="none" d="M42.09,43.69 L 40.84 43.9"/>
  <path fill="none" d="M41.94,44.54 L 40.84 43.9"/>
  <path fill="none" d="M65.26,48.27 L 40.84 43.9"/>
  <path fill="none" d="M47.19,28.15 L 48.35 28.68"/>
  <path fill="none" d="M47.8,27.53 L 48.35 28.68"/>
  <path fill="none" d="M36.76,17.36 L 48.35 28.68"/>
  <path fill="none" d="M39.62,10.73 L 39.62 9.46"/>
  <path fill="none" d="M38.8,10.44 L 39.62 9.46"/>
  <path fill="none" d="M36.76,17.36 L 39.62 9.46"/>
  <path fill="none" d="M33.22,20.37 L 32.69 21.52"/>
  <path fill="none" d="M33.84,20.97 L 32.69 21.52"/>
  <path fill="none" d="M36.76,17.36 L 32.69 21.52"/>
  <path fill="none" d="M20.69,79.12 L 21.44 80.14"/>
  <path fill="none" d="M21.52,78.88 L 21.44 80.14"/>
  <path fill="none" d="M13.54,53.44 L 21.44 80.14"/>
  <path fill="none" d="M30.69,70.92 L 31.85 71.45"/>
  <path fill="none" d="M31.3,70.3 L 31.85 71.45"/>
  <path fill="none" d="M13.54,53.44 L 31.85 71.45"/>
  <path fill="none" d="M25.5,25.74 L 25.56 24.47"/>
  <path fill="none" d="M24.7,25.41 L 25.56 24.47"/>
  <path fill="none" d="M13.54,53.44 L 25.56 24.47"/>
  <path fill="none" d="M58.3,65.35 L 57.63 64.27"/>
  <path fill="none" d="M57.45,65.53 L 57.63 64.27"/>
  <path fill="none" d="M62.07,84.95 L 57.63 64.27"/>
  <path fill="none" d="M42.25,67.41 L 41.06 66.97"/>
  <path fill="none" d="M41.68,68.07 L 41.06 66.97"/>
  <path fill="none" d="M62.07,84.95 L 41.06 66.97"/>
  <path fill="none" d="M69.22,66.55 L 69.21 65.28"/>
  <path fill="none" d="M68.4,66.26 L 69.21 65.28"/>
  <path fill="none" d="M62.07,84.95 L 69.21 65.28"/>
  <path fill="none" d="M56.31,54 L 57.57 54.17"/>
  <path fill="none" d="M56.72,53.23 L 57.57 54.17"/>
  <path fill="none" d="M28.48,38.81 L 57.57 54.17"/>
  <path fill="none" d="M30.16,63.56 L 30.69 64.71"/>
  <path fill="none" d="M31.02,63.49 L 30.69 64.71"/>
  <path fill="none" d="M28.48,38.81 L 30.69 64.71"/>
  <path fill="none" d="M14.27,38.29 L 13.07 38.72"/>
  <path fill="none" d="M14.26,39.16 L 13.07 38.72"/>
  <path fill="none" d="M28.48,38.81 L 13.07 38.72"/>
  <path fill="none" d="M42.3,53.73 L 43.56 53.85"/>
  <path fill="none" d="M42.67,52.95 L 43.56 53.85"/>
  <path fill="none" d="M21.96,43.65 L 43.56 53.85"/>
  <path fill="none" d="M36.04,19.53 L 36.25 18.28"/>
  <path fill="none" d="M35.28,19.11 L 36.25 18.28"/>
  <path fill="none" d="M21.96,43.65 L 36.25 18.28"/>
  <path fill="none" d="M34.43,47.45 L 35.69 47.34"/>
  <path fill="none" d="M34.65,46.61 L 35.69 47.34"/>
  <path fill="none" d="M21.96,43.65 L 35.69 47.34"/>
  <path fill="none" d="M21,76.33 L 20.3 75.27"/>
  <path fill="none" d="M20.16,76.53 L 20.3 75.27"/>
  <path fill="none" d="M21.74,81.16 L 20.3 75.27"/>
  <path fill="none" d="M10.1,63.44 L 9.07 62.7"/>
  <path fill="none" d="M9.38,63.93 L 9.07 62.7"/>
  <path fill="none" d="M21.74,81.16 L 9.07 62.7"/>
  <path fill="none" d="M46.95,82.53 L 48.16 82.14"/>
  <path fill="none" d="M46.98,81.66 L 48.16 82.14"/>
  <path fill="none" d="M21.74,81.16 L 48.16 82.14"/>
  <path fill="none" d="M69.79,38.37 L 69.97 39.63"/>
  <path fill="none" d="M70.64,38.55 L 69.97 39.63"/>
  <path fill="none" d="M74.29,18.42 L 69.97 39.63"/>
  <path fill="none" d="M76.5,38.49 L 77.08 39.61"/>
  <path fill="none" d="M77.36,38.37 L 77.08 39.61"/>
  <path fill="none" d="M74.29,18.42 L 77.08 39.61"/>
  <path fill="none" d="M52.5,17.47 L 51.3 17.87"/>
  <path fill="none" d="M52.48,18.34 L 51.3 17.87"/>
  <path fill="none" d="M74.29,18.42 L 51.3 17.87"/>
  <path fill="none" d="M33.37,87.77 L 34.46 88.43"/>
  <path fill="none" d="M34.05,87.23 L 34.46 88.43"/>
  <path fill="none" d="M24.48,75.96 L 34.46 88.43"/>
  <path fill="none" d="M47.26,55.26 L 47.84 54.13"/>
  <path fill="none" d="M46.67,54.63 L 47.84 54.13"/>
  <path fill="none" d="M24.48,75.96 L 47.84 54.13"/>
  <path fill="none" d="M30.74,73.54 L 31.64 72.64"/>
  <path fill="none" d="M30.38,72.75 L 31.64 72.64"/>
  <path fill="none" d="M24.48,75.96 L 31.64 72.64"/>
  <path fill="none" d="M66.44,29.1 L 65.29 28.56"/>
  <path fill="none" d="M65.82,29.71 L 65.29 28.56"/>
  <path fill="none" d="M77.22,40.66 L 65.29 28.56"/>
  <path fill="none" d="M72.85,66.91 L 73.1 68.15"/>
  <path fill="none" d="M73.71,67.04 L 73.1 68.15"/>
  <path fill="none" d="M77.22,40.66 L 73.1 68.15"/>
  <path fill="none" d="M54.17,39.47 L 52.96 39.86"/>
  <path fill="none" d="M54.14,40.34 L 52.96 39.86"/>
  <path fill="none" d="M77.22,40.66 L 52.96 39.86"/>
  <path fill="none" d="M21.44,63.22 L 20.71 64.26"/>
  <path fill="none" d="M21.94,63.94 L 20.71 64.26"/>
  <path fill="none" d="M45.06,47.46 L 20.71 64.26"/>
  <path fill="none" d="M63.27,29.71 L 63.8 28.55"/>
  <path fill="none" d="M62.65,29.1 L 63.8 28.55"/>
  <path fill="none" d="M45.06,47.46 L 63.8 28.55"/>
  <path fill="none" d="M44.01,61.24 L 44.39 62.45"/>
  <path fill="none" d="M44.87,61.28 L 44.39 62.45"/>
  <path fill="none" d="M45.06,47.46 L 44.39 62.45"/>
  <path fill="none" d="M35.65,75.39 L 34.83 76.37"/>
  <path fill="none" d="M36.08,76.14 L 34.83 76.37"/>
  <path fill="none" d="M57.4,63.24 L 34.83 76.37"/>
  <path fill="none" d="M74.93,67.29 L 76.19 67.1"/>
  <path fill="none" d="M75.11,66.44 L 76.19 67.1"/>
  <path fill="none" d="M57.4,63.24 L 76.19 67.1"/>
  <path fill="none" d="M41.63,45.1 L 40.51 44.5"/>
  <path fill="none" d="M40.98,45.68 L 40.51 44.5"/>
  <path fill="none" d="M57.4,63.24 L 40.51 44.5"/>
  <path fill="none" d="M47.65,61.46 L 48.09 60.27"/>
  <path fill="none" d="M46.99,60.89 L 48.09 60.27"/>
  <path fill="none" d="M33.92,76.9 L 48.09 60.27"/>
  <path fill="none" d="M35.77,60.36 L 35.43 59.14"/>
  <path fill="none" d="M34.9,60.29 L 35.43 59.14"/>
  <path fill="none" d="M33.92,76.9 L 35.43 59.14"/>
  <path fill="none" d="M10.63,62.6 L 9.38 62.37"/>
  <path fill="none" d="M10.18,63.35 L 9.38 62.37"/>
  <path fill="none" d="M33.92,76.9 L 9.38 62.37"/>
  <path fill="none" d="M49.71,72.81 L 50.26 73.95"/>
  <path fill="none" d="M50.57,72.72 L 50.26 73.95"/>
  <path fill="none" d="M46.1,34.23 L 50.26 73.95"/>
  <path fill="none" d="M54.66,48.84 L 55.66 49.63"/>
  <path fill="none" d="M55.4,48.39 L 55.66 49.63"/>
  <path fill="none" d="M46.1,34.23 L 55.66 49.63"/>
  <path fill="none" d="M33.96,23.4 L 32.76 22.96"/>
  <path fill="none" d="M33.4,24.07 L 32.76 22.96"/>
  <path fill="none" d="M46.1,34.23 L 32.76 22.96"/>
  <path fill="none" d="M46.16,66.57 L 47.15 67.37"/>
  <path fill="none" d="M46.91,66.13 L 47.15 67.37"/>
  <path fill="none" d="M33.08,43.93 L 47.15 67.37"/>
  <path fill="none" d="M61.34,41.13 L 62.48 40.57"/>
  <path fill="none" d="M61.24,40.27 L 62.48 40.57"/>
  <path fill="none" d="M33.08,43.93 L 62.48 40.57"/>
  <path fill="none" d="M30.31,40.19 L 29.19 39.6"/>
  <path fill="none" d="M29.66,40.77 L 29.19 39.6"/>
  <path fill="none" d="M33.08,43.93 L 29.19 39.6"/>
  <path fill="none" d="M54.17,34.5 L 53.45 33.46"/>
  <path fill="none" d="M53.33,34.72 L 53.45 33.46"/>
  <path fill="none" d="M61.62,64.63 L 53.45 33.46"/>
  <path fill="none" d="M46.61,63.22 L 45.39 63.57"/>
  <path fill="none" d="M46.56,64.09 L 45.39 63.57"/>
  <path fill="none" d="M61.62,64.63 L 45.39 63.57"/>
  <path fill="none" d="M41.45,70.46 L 40.44 71.23"/>
  <path fill="none" d="M41.71,71.29 L 40.44 71.23"/>
  <path fill="none" d="M61.62,64.63 L 40.44 71.23"/>
  <path fill="none" d="M48.05,44.32 L 46.8 44.06"/>
  <path fill="none" d="M47.58,45.06 L 46.8 44.06"/>
  <path fill="none" d="M69.83,58.47 L 46.8 44.06"/>
  <path fill="none" d="M68.65,57.18 L 67.41 56.89"/>
  <path fill="none" d="M68.17,57.91 L 67.41 56.89"/>
  <path fill="none" d="M69.83,58.47 L 67.41 56.89"/>
  <path fill="none" d="M74.22,72.67 L 75.01 73.66"/>
  <path fill="none" d="M75.04,72.39 L 75.01 73.66"/>
  <path fill="none" d="M69.83,58.47 L 75.01 73.66"/>
  <path fill="none" d="M68.75,56.45 L 69.52 57.46"/>
  <path fill="none" d="M69.58,56.19 L 69.52 57.46"/>
  <path fill="none" d="M62.63,34.96 L 69.52 57.46"/>
  <path fill="none" d="M57.76,23.54 L 56.86 22.64"/>
  <path fill="none" d="M56.97,23.91 L 56.86 22.64"/>
  <path fill="none" d="M62.63,34.96 L 56.86 22.64"/>
  <path fill="none" d="M68.63,62.2 L 69.33 63.26"/>
  <path fill="none" d="M69.48,62 L 69.33 63.26"/>
  <path fill="none" d="M62.63,34.96 L 69.33 63.26"/>
  <path fill="none" d="M25.76,66.78 L 24.59 67.29"/>
  <path fill="none" d="M25.81,67.64 L 24.59 67.29"/>
  <path fill="none" d="M40.25,66.28 L 24.59 67.29"/>
  <path fill="none" d="M21.98,73.01 L 21.03 73.85"/>
  <path fill="none" d="M22.3,73.82 L 21.03 73.85"/>
  <path fill="none" d="M40.25,66.28 L 21.03 73.85"/>
  <path fill="none" d="M39.27,37.4 L 38.78 36.23"/>
  <path fill="none" d="M38.4,37.45 L 38.78 36.23"/>
  <path fill="none" d="M40.25,66.28 L 38.78 36.23"/>
  <path fill="none" d="M31.67,45.74 L 32.28 44.62"/>
  <path fill="none" d="M31.1,45.08 L 32.28 44.62"/>
  <path fill="none" d="M18.59,56.62 L 32.28 44.62"/>
  <path fill="none" d="M13.19,40.67 L 12.38 39.7"/>
  <path fill="none" d="M12.38,40.97 L 12.38 39.7"/>
  <path fill="none" d="M18.59,56.62 L 12.38 39.7"/>
  <path fill="none" d="M37.35,70.58 L 38.57 70.93"/>
  <path fill="none" d="M37.85,69.88 L 38.57 70.93"/>
  <path fill="none" d="M18.59,56.62 L 38.57 70.93"/>
  <path fill="none" d="M82.79,63.2 L 82.35 64.4"/>
  <path fill="none" d="M83.45,63.76 L 82.35 64.4"/>
  <path fill="none" d="M88.87,56.64 L 82.35 64.4"/>
  <path fill="none" d="M74.44,67.47 L 73.77 68.55"/>
  <path fill="none" d="M74.98,68.15 L 73.77 68.55"/>
  <path fill="none" d="M88.87,56.64 L 73.77 68.55"/>
  <path fill="none" d="M91.5,61.24 L 92.54 61.98"/>
  <path fill="none" d="M92.22,60.75 L 92.54 61.98"/>
  <path fill="none" d="M88.87,56.64 L 92.54 61.98"/>
  <path fill="none" d="M51.03,59.9 L 49.76 59.86"/>
  <path fill="none" d="M50.7,60.71 L 49.76 59.86"/>
  <path fill="none" d="M72.94,69.2 L 49.76 59.86"/>
  <path fill="none" d="M52.45,74.02 L 51.4 74.74"/>
  <path fill="none" d="M52.66,74.87 L 51.4 74.74"/>
  <path fill="none" d="M72.94,69.2 L 51.4 74.74"/>
  <path fill="none" d="M87.93,65.65 L 88.97 64.92"/>
  <path fill="none" d="M87.71,64.81 L 88.97 64.92"/>
  <path fill="none" d="M72.94,69.2 L 88.97 64.92"/>
  <path fill="none" d="M11.39,65.82 L 12.51 66.43"/>
  <path fill="none" d="M12.05,65.24 L 12.51 66.43"/>
  <path fill="none" d="M8.47,61.83 L 12.51 66.43"/>
  <path fill="none" d="M20.97,45.71 L 21.33 44.5"/>
  <path fill="none" d="M20.27,45.2 L 21.33 44.5"/>
  <path fill="none" d="M8.47,61.83 L 21.33 44.5"/>
  <path fill="none" d="M12.1,41 L 11.85 39.76"/>
  <path fill="none" d="M11.24,40.87 L 11.85 39.76"/>
  <path fill="none" d="M8.47,61.83 L 11.85 39.76"/>
  <path fill="none" d="M24.22,44.01 L 22.95 44.01"/>
  <path fill="none" d="M23.93,44.83 L 22.95 44.01"/>
  <path fill="none" d="M48.61,53.41 L 22.95 44.01"/>
  <path fill="none" d="M74.7,36.04 L 75.43 35.01"/>
  <path fill="none" d="M74.21,35.33 L 75.43 35.01"/>
  <path fill="none" d="M48.61,53.41 L 75.43 35.01"/>
  <path fill="none" d="M77.94,49.35 L 79.05 48.74"/>
  <path fill="none" d="M77.81,48.49 L 79.05 48.74"/>
  <path fill="none" d="M48.61,53.41 L 79.05 48.74"/>
  <path fill="none" d="M60.68,53.94 L 59.56 54.53"/>
  <path fill="none" d="M60.8,54.8 L 59.56 54.53"/>
  <path fill="none" d="M84.44,51.28 L 59.56 54.53"/>
  <path fill="none" d="M87.11,55.18 L 88.2 55.82"/>
  <path fill="none" d="M87.77,54.63 L 88.2 55.82"/>
  <path fill="none" d="M84.44,51.28 L 88.2 55.82"/>
  <path fill="none" d="M75.77,72.41 L 75.74 73.68"/>
  <path fill="none" d="M76.58,72.72 L 75.74 73.68"/>
  <path fill="none" d="M84.44,51.28 L 75.74 73.68"/>
  <path fill="none" d="M80.92,34.84 L 81.59 35.92"/>
  <path fill="none" d="M81.77,34.66 L 81.59 35.92"/>
  <path fill="none" d="M79.61,26.68 L 81.59 35.92"/>
  <path fill="none" d="M71.53,45.55 L 71.49 46.82"/>
  <path fill="none" d="M72.34,45.87 L 71.49 46.82"/>
  <path fill="none" d="M79.61,26.68 L 71.49 46.82"/>
  <path fill="none" d="M66.05,21.76 L 64.78 21.8"/>
  <path fill="none" d="M65.78,22.59 L 64.78 21.8"/>
  <path fill="none" d="M79.61,26.68 L 64.78 21.8"/>
  <path fill="none" d="M57.03,60.98 L 57.43 62.18"/>
  <path fill="none" d="M57.9,61 L 57.43 62.18"/>
  <path fill="none" d="M58.35,27.62 L 57.43 62.18"/>
  <path fill="none" d="M67.22,33.08 L 68.48 33.28"/>
  <path fill="none" d="M67.65,32.32 L 68.48 33.28"/>
  <path fill="none" d="M58.35,27.62 L 68.48 33.28"/>
  <path fill="none" d="M41.85,9.79 L 40.71 9.23"/>
  <path fill="none" d="M41.22,10.39 L 40.71 9.23"/>
  <path fill="none" d="M58.35,27.62 L 40.71 9.23"/>
  <path fill="none" d="M50.04,24.89 L 48.99 24.18"/>
  <path fill="none" d="M49.34,25.4 L 48.99 24.18"/>
  <path fill="none" d="M59.13,38.18 L 48.99 24.18"/>
  <path fill="none" d="M38.71,18.57 L 37.54 18.08"/>
  <path fill="none" d="M38.12,19.21 L 37.54 18.08"/>
  <path fill="none" d="M59.13,38.18 L 37.54 18.08"/>
  <path fill="none" d="M74.72,57.5 L 75.82 58.14"/>
  <path fill="none" d="M75.39,56.95 L 75.82 58.14"/>
  <path fill="none" d="M59.13,38.18 L 75.82 58.14"/>
  <path fill="none" d="M33.07,65.6 L 31.83 65.89"/>
  <path fill="none" d="M32.97,66.46 L 31.83 65.89"/>
  <path fill="none" d="M55.32,68.65 L 31.83 65.89"/>
  <path fill="none" d="M56.14,78.63 L 56.72 79.76"/>
  <path fill="none" d="M57,78.52 L 56.72 79.76"/>
  <path fill="none" d="M55.32,68.65 L 56.72 79.76"/>
  <path fill="none" d="M75,67.88 L 76.17 67.38"/>
  <path fill="none" d="M74.95,67.02 L 76.17 67.38"/>
  <path fill="none" d="M55.32,68.65 L 76.17 67.38"/>
  <path fill="none" d="M60.76,36.29 L 61.66 35.4"/>
  <path fill="none" d="M60.4,35.5 L 61.66 35.4"/>
  <path fill="none" d="M51.9,39.83 L 61.66 35.4"/>
  <path fill="none" d="M54.62,66.46 L 55.2 67.59"/>
  <path fill="none" d="M55.49,66.36 L 55.2 67.59"/>
  <path fill="none" d="M51.9,39.83 L 55.2 67.59"/>
  <path fill="none" d="M50.11,31.48 L 49.38 30.44"/>
  <path fill="none" d="M49.27,31.7 L 49.38 30.44"/>
  <path fill="none" d="M51.9,39.83 L 49.38 30.44"/>
  <path fill="none" d="M15.41,66.6 L 14.26 67.13"/>
  <path fill="none" d="M15.49,67.47 L 14.26 67.13"/>
  <path fill="none" d="M30.78,65.77 L 14.26 67.13"/>
  <path fill="none" d="M25.5,57.62 L 24.46 56.9"/>
  <path fill="none" d="M24.8,58.13 L 24.46 56.9"/>
  <path fill="none" d="M30.78,65.77 L 24.46 56.9"/>
  <path fill="none" d="M51.9,71.24 L 53.16 71.09"/>
  <path fill="none" d="M52.1,70.39 L 53.16 71.09"/>
  <path fill="none" d="M30.78,65.77 L 53.16 71.09"/>
  <path fill="none" d="M30.55,37.82 L 29.51 38.54"/>
  <path fill="none" d="M30.77,38.67 L 29.51 38.54"/>
  <path fill="none" d="M53.18,32.44 L 29.51 38.54"/>
  <path fill="none" d="M48.18,33.26 L 47.13 33.97"/>
  <path fill="none" d="M48.39,34.1 L 47.13 33.97"/>
  <path fill="none" d="M53.18,32.44 L 47.13 33.97"/>
  <path fill="none" d="M77.5,27.58 L 78.58 26.9"/>
  <path fill="none" d="M77.32,26.73 L 78.58 26.9"/>
  <path fill="none" d="M53.18,32.44 L 78.58 26.9"/>
  <path fill="none" d="M75,20.6 L 74.42 19.47"/>
  <path fill="none" d="M74.14,20.71 L 74.42 19.47"/>
  <path fill="none" d="M76.31,34.41 L 74.42 19.47"/>
  <path fill="none" d="M79.13,28.92 L 79.2 27.65"/>
  <path fill="none" d="M78.33,28.58 L 79.2 27.65"/>
  <path fill="none" d="M76.31,34.41 L 79.2 27.65"/>
  <path fill="none" d="M61.24,37.28 L 60.16 37.96"/>
  <path fill="none" d="M61.42,38.12 L 60.16 37.96"/>
  <path fill="none" d="M76.31,34.41 L 60.16 37.96"/>
  <path fill="none" d="M44.5,52.01 L 44.71 53.26"/>
  <path fill="none" d="M45.35,52.17 L 44.71 53.26"/>
  <path fill="none" d="M49.1,29.42 L 44.71 53.26"/>
  <path fill="none" d="M48.37,57.21 L 48.79 58.4"/>
  <path fill="none" d="M49.24,57.22 L 48.79 58.4"/>
  <path fill="none" d="M49.1,29.42 L 48.79 58.4"/>
  <path fill="none" d="M79.52,36.87 L 80.78 36.72"/>
  <path fill="none" d="M79.72,36.03 L 80.78 36.72"/>
  <path fill="none" d="M49.1,29.42 L 80.78 36.72"/>
  <path fill="none" d="M34,46.03 L 33.31 44.96"/>
  <path fill="none" d="M33.16,46.22 L 33.31 44.96"/>
  <path fill="none" d="M35.43,54.24 L 33.31 44.96"/>
  <path fill="none" d="M52.09,34.46 L 52.51 33.26"/>
  <path fill="none" d="M51.42,33.91 L 52.51 33.26"/>
  <path fill="none" d="M35.43,54.24 L 52.51 33.26"/>
  <path fill="none" d="M52.24,70.14 L 53.41 70.62"/>
  <path fill="none" d="M52.82,69.5 L 53.41 70.62"/>
  <path fill="none" d="M35.43,54.24 L 53.41 70.62"/>
  <path fill="none" d="M77.32,79.4 L 78.47 78.86"/>
  <path fill="none" d="M77.24,78.53 L 78.47 78.86"/>
  <path fill="none" d="M56.85,80.81 L 78.47 78.86"/>
  <path fill="none" d="M36.21,76.85 L 34.96 77.08"/>
  <path fill="none" d="M36.06,77.7 L 34.96 77.08"/>
  <path fill="none" d="M56.85,80.81 L 34.96 77.08"/>
  <path fill="none" d="M32.34,59.33 L 31.15 58.88"/>
  <path fill="none" d="M31.78,59.99 L 31.15 58.88"/>
  <path fill="none" d="M56.85,80.81 L 31.15 58.88"/>
  <path fill="none" d="M49.56,25.28 L 48.74 24.31"/>
  <path fill="none" d="M48.75,25.58 L 48.74 24.31"/>
  <path fill="none" d="M56.34,44.73 L 48.74 24.31"/>
  <path fill="none" d="M82.15,51.19 L 83.41 51.04"/>
  <path fill="none" d="M82.35,50.34 L 83.41 51.04"/>
  <path fill="none" d="M56.34,44.73 L 83.41 51.04"/>
  <path fill="none" d="M33.85,50.51 L 32.82 51.25"/>
  <path fill="none" d="M34.08,51.35 L 32.82 51.25"/>
  <path fill="none" d="M56.34,44.73 L 32.82 51.25"/>
  <path fill="none" d="M24.16,73.69 L 24.53 74.91"/>
  <path fill="none" d="M25.03,73.74 L 24.53 74.91"/>
  <path fill="none" d="M25.9,49.02 L 24.53 74.91"/>
  <path fill="none" d="M42.85,48.07 L 44 47.54"/>
  <path fill="none" d="M42.78,47.21 L 44 47.54"/>
  <path fill="none" d="M25.9,49.02 L 44 47.54"/>
  <path fill="none" d="M10.02,60.14 L 9.32 61.2"/>
  <path fill="none" d="M10.54,60.84 L 9.32 61.2"/>
  <path fill="none" d="M25.9,49.02 L 9.32 61.2"/>
  <path fill="none" d="M72.61,49.52 L 73.31 50.58"/>
  <path fill="none" d="M73.46,49.32 L 73.31 50.58"/>
  <path fill="none" d="M69.4,33.8 L 73.31 50.58"/>
  <path fill="none" d="M74.02,20.7 L 73.96 19.43"/>
  <path fill="none" d="M73.19,20.44 L 73.96 19.43"/>
  <path fill="none" d="M69.4,33.8 L 73.96 19.43"/>
  <path fill="none" d="M46.81,45.98 L 45.98 46.94"/>
  <path fill="none" d="M47.24,46.73 L 45.98 46.94"/>
  <path fill="none" d="M69.4,33.8 L 45.98 46.94"/>
  <path fill="none" d="M47.28,25.34 L 47.7 24.14"/>
  <path fill="none" d="M46.61,24.79 L 47.7 24.14"/>
  <path fill="none" d="M38.73,35.18 L 47.7 24.14"/>
  <path fill="none" d="M35.38,51.95 L 35.61 53.2"/>
  <path fill="none" d="M36.24,52.1 L 35.61 53.2"/>
  <path fill="none" d="M38.73,35.18 L 35.61 53.2"/>
  <path fill="none" d="M67.17,34.33 L 68.34 33.85"/>
  <path fill="none" d="M67.13,33.46 L 68.34 33.85"/>
  <path fill="none" d="M38.73,35.18 L 68.34 33.85"/>
  <path fill="none" d="M52.24,92.04 L 51.23 92.81"/>
  <path fill="none" d="M52.5,92.87 L 51.23 92.81"/>
  <path fill="none" d="M65.44,88.3 L 51.23 92.81"/>
  <path fill="none" d="M37.36,88.75 L 36.18 89.22"/>
  <path fill="none" d="M37.38,89.62 L 36.18 89.22"/>
  <path fill="none" d="M65.44,88.3 L 36.18 89.22"/>
  <path fill="none" d="M62.41,66.78 L 61.79 65.67"/>
  <path fill="none" d="M61.55,66.92 L 61.79 65.67"/>
  <path fill="none" d="M65.44,88.3 L 61.79 65.67"/>
  <path fill="none" d="M31.3,25.44 L 31.17 26.71"/>
  <path fill="none" d="M32.08,25.82 L 31.17 26.71"/>
  <path fill="none" d="M39.98,8.47 L 31.17 26.71"/>
  <path fill="none" d="M38.4,32.91 L 38.78 34.12"/>
  <path fill="none" d="M39.27,32.95 L 38.78 34.12"/>
  <path fill="none" d="M39.98,8.47 L 38.78 34.12"/>
  <path fill="none" d="M51.38,9.7 L 52.6 9.35"/>
  <path fill="none" d="M51.44,8.83 L 52.6 9.35"/>
  <path fill="none" d="M39.98,8.47 L 52.6 9.35"/>
  <path fill="none" d="M58.37,79.09 L 57.69 80.17"/>
  <path fill="none" d="M58.9,79.78 L 57.69 80.17"/>
  <path fill="none" d="M69.19,71.36 L 57.69 80.17"/>
  <path fill="none" d="M76.55,56.73 L 76.66 55.47"/>
  <path fill="none" d="M75.76,56.36 L 76.66 55.47"/>
  <path fill="none" d="M69.19,71.36 L 76.66 55.47"/>
  <path fill="none" d="M57.78,52.21 L 56.78 51.43"/>
  <path fill="none" d="M57.04,52.67 L 56.78 51.43"/>
  <path fill="none" d="M69.19,71.36 L 56.78 51.43"/>
  <path fill="none" d="M83.11,38.84 L 82.24 37.92"/>
  <path fill="none" d="M82.32,39.19 L 82.24 37.92"/>
  <path fill="none" d="M93.13,62.86 L 82.24 37.92"/>
  <path fill="none" d="M91.73,63.15 L 90.91 64.12"/>
  <path fill="none" d="M92.17,63.91 L 90.91 64.12"/>
  <path fill="none" d="M93.13,62.86 L 90.91 64.12"/>
  <path fill="none" d="M78.79,59.04 L 77.53 59.19"/>
  <path fill="none" d="M78.59,59.89 L 77.53 59.19"/>
  <path fill="none" d="M93.13,62.86 L 77.53 59.19"/>
  <path fill="none" d="M63.77,83.41 L 62.98 84.4"/>
  <path fill="none" d="M64.22,84.15 L 62.98 84.4"/>
  <path fill="none" d="M70.68,79.7 L 62.98 84.4"/>
  <path fill="none" d="M70.01,73.5 L 69.38 72.4"/>
  <path fill="none" d="M69.16,73.65 L 69.38 72.4"/>
  <path fill="none" d="M70.68,79.7 L 69.38 72.4"/>
  <path fill="none" d="M82.99,62 L 83.29 60.77"/>
  <path fill="none" d="M82.26,61.52 L 83.29 60.77"/>
  <path fill="none" d="M70.68,79.7 L 83.29 60.77"/>
  <path fill="none" d="M51.49,50.09 L 51.92 48.89"/>
  <path fill="none" d="M50.83,49.54 L 51.92 48.89"/>
  <path fill="none" d="M32.6,72.19 L 51.92 48.89"/>
  <path fill="none" d="M47.48,55.4 L 47.93 54.21"/>
  <path fill="none" d="M46.82,54.84 L 47.93 54.21"/>
  <path fill="none" d="M32.6,72.19 L 47.93 54.21"/>
  <path fill="none" d="M47.06,81.39 L 48.31 81.63"/>
  <path fill="none" d="M47.51,80.64 L 48.31 81.63"/>
  <path fill="none" d="M32.6,72.19 L 48.31 81.63"/>
  <path fill="none" d="M24.53,65.29 L 24.17 66.51"/>
  <path fill="none" d="M25.23,65.81 L 24.17 66.51"/>
  <path fill="none" d="M30.35,58.2 L 24.17 66.51"/>
  <path fill="none" d="M42.46,55.32 L 43.5 54.58"/>
  <path fill="none" d="M42.23,54.48 L 43.5 54.58"/>
  <path fill="none" d="M30.35,58.2 L 43.5 54.58"/>
  <path fill="none" d="M20.88,56.49 L 19.63 56.76"/>
  <path fill="none" d="M20.76,57.35 L 19.63 56.76"/>
  <path fill="none" d="M30.35,58.2 L 19.63 56.76"/>
  <path fill="none" d="M86.58,56.66 L 87.83 56.45"/>
  <path fill="none" d="M86.74,55.81 L 87.83 56.45"/>
  <path fill="none" d="M77.11,54.51 L 87.83 56.45"/>
  <path fill="none" d="M58.57,45.3 L 57.3 45.18"/>
  <path fill="none" d="M58.2,46.08 L 57.3 45.18"/>
  <path fill="none" d="M77.11,54.51 L 57.3 45.18"/>
  <path fill="none" d="M62.83,71.93 L 62.43 73.14"/>
  <path fill="none" d="M63.51,72.47 L 62.43 73.14"/>
  <path fill="none" d="M77.11,54.51 L 62.43 73.14"/>
  <path fill="none" d="M66.83,49.94 L 65.82 49.16"/>
  <path fill="none" d="M66.09,50.4 L 65.82 49.16"/>
  <path fill="none" d="M77.23,67.31 L 65.82 49.16"/>
  <path fill="none" d="M66.17,86.12 L 65.96 87.37"/>
  <path fill="none" d="M66.92,86.54 L 65.96 87.37"/>
  <path fill="none" d="M77.23,67.31 L 65.96 87.37"/>
  <path fill="none" d="M91.08,63.88 L 92.11 63.14"/>
  <path fill="none" d="M90.85,63.05 L 92.11 63.14"/>
  <path fill="none" d="M77.23,67.31 L 92.11 63.14"/>
  <path fill="none" d="M75.58,52.67 L 74.38 52.27"/>
  <path fill="none" d="M75.04,53.35 L 74.38 52.27"/>
  <path fill="none" d="M89.99,64.65 L 74.38 52.27"/>
  <path fill="none" d="M71.2,70.25 L 70.2 71.03"/>
  <path fill="none" d="M71.47,71.08 L 70.2 71.03"/>
  <path fill="none" d="M89.99,64.65 L 70.2 71.03"/>
  <path fill="none" d="M81.65,50.27 L 80.65 49.48"/>
  <path fill="none" d="M80.91,50.73 L 80.65 49.48"/>
  <path fill="none" d="M89.99,64.65 L 80.65 49.48"/>
  <path fill="none" d="M72.15,19.26 L 73.24 18.61"/>
  <path fill="none" d="M71.99,18.4 L 73.24 18.61"/>
  <path fill="none" d="M56.41,21.68 L 73.24 18.61"/>
  <path fill="none" d="M54.57,11.52 L 53.89 10.45"/>
  <path fill="none" d="M53.73,11.71 L 53.89 10.45"/>
  <path fill="none" d="M56.41,21.68 L 53.89 10.45"/>
  <path fill="none" d="M28.19,22.93 L 27.02 23.43"/>
  <path fill="none" d="M28.24,23.79 L 27.02 23.43"/>
  <path fill="none" d="M56.41,21.68 L 27.02 23.43"/>
  <path fill="none" d="M58.2,56.94 L 58.17 55.67"/>
  <path fill="none" d="M57.38,56.66 L 58.17 55.67"/>
  <path fill="none" d="M49.22,82.17 L 58.17 55.67"/>
  <path fill="none" d="M71.18,70.66 L 72.01 69.71"/>
  <path fill="none" d="M70.76,69.9 L 72.01 69.71"/>
  <path fill="none" d="M49.22,82.17 L 72.01 69.71"/>
  <path fill="none" d="M68.17,66.1 L 68.78 64.99"/>
  <path fill="none" d="M67.6,65.45 L 68.78 64.99"/>
  <path fill="none" d="M49.22,82.17 L 68.78 64.99"/>
  <path fill="none" d="M63.7,49.94 L 64.4 48.89"/>
  <path fill="none" d="M63.18,49.24 L 64.4 48.89"/>
  <path fill="none" d="M44.34,63.51 L 64.4 48.89"/>
  <path fill="none" d="M20.87,56.78 L 19.61 56.89"/>
  <path fill="none" d="M20.65,57.62 L 19.61 56.89"/>
  <path fill="none" d="M44.34,63.51 L 19.61 56.89"/>
  <path fill="none" d="M53.1,68.08 L 54.36 68.2"/>
  <path fill="none" d="M53.46,67.3 L 54.36 68.2"/>
  <path fill="none" d="M44.34,63.51 L 54.36 68.2"/>
  <path fill="none" d="M37.49,56.9 L 36.52 57.72"/>
  <path fill="none" d="M37.79,57.72 L 36.52 57.72"/>
  <path fill="none" d="M56.22,50.53 L 36.52 57.72"/>
  <path fill="none" d="M41.55,64.39 L 41.01 65.54"/>
  <path fill="none" d="M42.16,65.01 L 41.01 65.54"/>
  <path fill="none" d="M56.22,50.53 L 41.01 65.54"/>
  <path fill="none" d="M51.07,19.99 L 50.43 18.89"/>
  <path fill="none" d="M50.22,20.14 L 50.43 18.89"/>
  <path fill="none" d="M56.22,50.53 L 50.43 18.89"/>
  <path fill="none" d="M76.94,42.94 L 76.9 41.67"/>
  <path fill="none" d="M76.11,42.67 L 76.9 41.67"/>
  <path fill="none" d="M69.58,64.29 L 76.9 41.67"/>
  <path fill="none" d="M57.35,67.57 L 56.33 68.34"/>
  <path fill="none" d="M57.6,68.4 L 56.33 68.34"/>
  <path fill="none" d="M69.58,64.29 L 56.33 68.34"/>
  <path fill="none" d="M76.08,56.56 L 76.47 55.35"/>
  <path fill="none" d="M75.39,56.03 L 76.47 55.35"/>
  <path fill="none" d="M69.58,64.29 L 76.47 55.35"/>
  <path fill="none" d="M23.98,30.2 L 24.67 29.14"/>
  <path fill="none" d="M23.45,29.51 L 24.67 29.14"/>
  <path fill="none" d="M12.01,38.71 L 24.67 29.14"/>
  <path fill="none" d="M29.67,50.67 L 30.91 50.96"/>
  <path fill="none" d="M30.14,49.95 L 30.91 50.96"/>
  <path fill="none" d="M12.01,38.71 L 30.91 50.96"/>
  <path fill="none" d="M30.49,24.05 L 31.14 22.95"/>
  <path fill="none" d="M29.94,23.38 L 31.14 22.95"/>
  <path fill="none" d="M12.01,38.71 L 31.14 22.95"/>
  <path fill="none" d="M50.2,90.84 L 50.42 92.09"/>
  <path fill="none" d="M51.06,91 L 50.42 92.09"/>
  <path fill="none" d="M54.19,71.34 L 50.42 92.09"/>
  <path fill="none" d="M68.36,60.24 L 69.01 59.15"/>
  <path fill="none" d="M67.81,59.57 L 69.01 59.15"/>
  <path fill="none" d="M54.19,71.34 L 69.01 59.15"/>
  <path fill="none" d="M59.23,40.47 L 58.97 39.23"/>
  <path fill="none" d="M58.37,40.35 L 58.97 39.23"/>
  <path fill="none" d="M54.19,71.34 L 58.97 39.23"/>
  <path fill="none" d="M79.6,76.47 L 79.76 77.73"/>
  <path fill="none" d="M80.45,76.67 L 79.76 77.73"/>
  <path fill="none" d="M83.87,59.89 L 79.76 77.73"/>
  <path fill="none" d="M84.73,53.55 L 84.37 52.33"/>
  <path fill="none" d="M83.86,53.49 L 84.37 52.33"/>
  <path fill="none" d="M83.87,59.89 L 84.37 52.33"/>
  <path fill="none" d="M70.87,35.56 L 69.91 34.72"/>
  <path fill="none" d="M70.11,35.98 L 69.91 34.72"/>
  <path fill="none" d="M83.87,59.89 L 69.91 34.72"/>
  <path fill="none" d="M51.02,90.98 L 50.77 92.23"/>
  <path fill="none" d="M51.76,91.43 L 50.77 92.23"/>
  <path fill="none" d="M61.77,73.97 L 50.77 92.23"/>
  <path fill="none" d="M91.16,64.02 L 92.14 63.21"/>
  <path fill="none" d="M90.87,63.2 L 92.14 63.21"/>
  <path fill="none" d="M61.77,73.97 L 92.14 63.21"/>
  <path fill="none" d="M33.86,52.54 L 32.65 52.17"/>
  <path fill="none" d="M33.34,53.23 L 32.65 52.17"/>
  <path fill="none" d="M61.77,73.97 L 32.65 52.17"/>
  <path fill="none" d="M50.74,46.73 L 51.88 47.3"/>
  <path fill="none" d="M51.38,46.14 L 51.88 47.3"/>
  <path fill="none" d="M42.38,37.12 L 51.88 47.3"/>
  <path fill="none" d="M25.11,54.13 L 24.58 55.28"/>
  <path fill="none" d="M25.73,54.74 L 24.58 55.28"/>
  <path fill="none" d="M42.38,37.12 L 24.58 55.28"/>
  <path fill="none" d="M47.4,51.46 L 48.24 52.42"/>
  <path fill="none" d="M48.21,51.15 L 48.24 52.42"/>
  <path fill="none" d="M42.38,37.12 L 48.24 52.42"/>
  <path fill="none" d="M71.92,53.23 L 72.67 52.2"/>
  <path fill="none" d="M71.43,52.5 L 72.67 52.2"/>
  <path fill="none" d="M66.52,56.31 L 72.67 52.2"/>
  <path fill="none" d="M47.31,47.91 L 46.04 47.86"/>
  <path fill="none" d="M46.97,48.72 L 46.04 47.86"/>
  <path fill="none" d="M66.52,56.31 L 46.04 47.86"/>
  <path fill="none" d="M81.58,59.86 L 82.84 59.67"/>
  <path fill="none" d="M81.76,59.01 L 82.84 59.67"/>
  <path fill="none" d="M66.52,56.31 L 82.84 59.67"/>
  <path fill="none" d="M14.66,65.44 L 14.02 66.54"/>
  <path fill="none" d="M15.21,66.11 L 14.02 66.54"/>
  <path fill="none" d="M36.72,47.62 L 14.02 66.54"/>
  <path fill="none" d="M54.18,45.49 L 55.3 44.89"/>
  <path fill="none" d="M54.05,44.63 L 55.3 44.89"/>
  <path fill="none" d="M36.72,47.62 L 55.3 44.89"/>
  <path fill="none" d="M39.08,30.73 L 38.78 29.49"/>
  <path fill="none" d="M38.22,30.63 L 38.78 29.49"/>
  <path fill="none" d="M36.72,47.62 L 38.78 29.49"/>
  <path fill="none" d="M79.13,76.51 L 79.54 77.71"/>
  <path fill="none" d="M80,76.52 L 79.54 77.71"/>
  <path fill="none" d="M80.1,48.58 L 79.54 77.71"/>
  <path fill="none" d="M71.81,41.69 L 70.6 41.31"/>
  <path fill="none" d="M71.29,42.38 L 70.6 41.31"/>
  <path fill="none" d="M80.1,48.58 L 70.6 41.31"/>
  <path fill="none" d="M76.83,56.68 L 76.85 57.95"/>
  <path fill="none" d="M77.65,56.97 L 76.85 57.95"/>
  <path fill="none" d="M80.1,48.58 L 76.85 57.95"/>
  <path fill="none" d="M28.56,28.45 L 29.67 27.83"/>
  <path fill="none" d="M28.42,27.59 L 29.67 27.83"/>
  <path fill="none" d="M25.51,28.5 L 29.67 27.83"/>
  <path fill="none" d="M48.34,19.14 L 49.27 18.27"/>
  <path fill="none" d="M48,18.34 L 49.27 18.27"/>
  <path fill="none" d="M25.51,28.5 L 49.27 18.27"/>
  <path fill="none" d="M26.19,25.77 L 25.87 24.55"/>
  <path fill="none" d="M25.33,25.7 L 25.87 24.55"/>
  <path fill="none" d="M25.51,28.5 L 25.87 24.55"/>
  <path fill="none" d="M20.53,55.41 L 19.57 56.24"/>
  <path fill="none" d="M20.84,56.22 L 19.57 56.24"/>
  <path fill="none" d="M31.8,51.53 L 19.57 56.24"/>
  <path fill="none" d="M41.4,39.19 L 41.75 37.97"/>
  <path fill="none" d="M40.7,38.68 L 41.75 37.97"/>
  <path fill="none" d="M31.8,51.53 L 41.75 37.97"/>
  <path fill="none" d="M35.22,49.36 L 35.89 48.28"/>
  <path fill="none" d="M34.68,48.68 L 35.89 48.28"/>
  <path fill="none" d="M31.8,51.53 L 35.89 48.28"/>
  <path fill="none" d="M35.75,55.8 L 35.83 57.07"/>
  <path fill="none" d="M36.58,56.05 L 35.83 57.07"/>
  <path fill="none" d="M39.8,43.72 L 35.83 57.07"/>
  <path fill="none" d="M45.22,36.35 L 45.52 35.11"/>
  <path fill="none" d="M44.5,35.87 L 45.52 35.11"/>
  <path fill="none" d="M39.8,43.72 L 45.52 35.11"/>
  <path fill="none" d="M31.22,56.07 L 30.93 57.31"/>
  <path fill="none" d="M31.94,56.55 L 30.93 57.31"/>
  <path fill="none" d="M39.8,43.72 L 30.93 57.31"/>
  <path fill="none" d="M46.34,31.95 L 46.41 33.22"/>
  <path fill="none" d="M47.17,32.2 L 46.41 33.22"/>
  <path fill="none" d="M53.66,9.42 L 46.41 33.22"/>
  <path fill="none" d="M52.79,30.18 L 53.2 31.38"/>
  <path fill="none" d="M53.66,30.19 L 53.2 31.38"/>
  <path fill="none" d="M53.66,9.42 L 53.2 31.38"/>
  <path fill="none" d="M42.25,8.19 L 41.03 8.54"/>
  <path fill="none" d="M42.19,9.06 L 41.03 8.54"/>
  <path fill="none" d="M53.66,9.42 L 41.03 8.54"/>
  <path fill="none" d="M65.18,42.04 L 64.14 41.31"/>
  <path fill="none" d="M64.47,42.54 L 64.14 41.31"/>
  <path fill="none" d="M76.5,58.95 L 64.14 41.31"/>
  <path fill="none" d="M65.83,86.04 L 65.82 87.31"/>
  <path fill="none" d="M66.64,86.34 L 65.82 87.31"/>
  <path fill="none" d="M76.5,58.95 L 65.82 87.31"/>
  <path fill="none" d="M58.46,50.99 L 57.2 50.93"/>
  <path fill="none" d="M58.13,51.79 L 57.2 50.93"/>
  <path fill="none" d="M76.5,58.95 L 57.2 50.93"/>
  <path fill="none" d="M39.03,17.01 L 37.82 17.4"/>
  <path fill="none" d="M39,17.87 L 37.82 17.4"/>
  <path fill="none" d="M50.24,17.85 L 37.82 17.4"/>
  <path fill="none" d="M51.3,37.62 L 51.82 38.77"/>
  <path fill="none" d="M52.17,37.55 L 51.82 38.77"/>
  <path fill="none" d="M50.24,17.85 L 51.82 38.77"/>
  <path fill="none" d="M61.49,21.31 L 62.75 21.2"/>
  <path fill="none" d="M61.71,20.47 L 62.75 21.2"/>
  <path fill="none" d="M50.24,17.85 L 62.75 21.2"/>
  <path fill="none" d="M33.46,41.67 L 33.45 42.94"/>
  <path fill="none" d="M34.28,41.97 L 33.45 42.94"/>
  <path fill="none" d="M38.9,28.44 L 33.45 42.94"/>
  <path fill="none" d="M56.12,28.15 L 57.29 27.67"/>
  <path fill="none" d="M56.08,27.28 L 57.29 27.67"/>
  <path fill="none" d="M38.9,28.44 L 57.29 27.67"/>
  <path fill="none" d="M26.73,46.88 L 26.46 48.12"/>
  <path fill="none" d="M27.47,47.35 L 26.46 48.12"/>
  <path fill="none" d="M38.9,28.44 L 26.46 48.12"/>
  <path fill="none" d="M60.38,34.51 L 61.65 34.56"/>
  <path fill="none" d="M60.71,33.7 L 61.65 34.56"/>
  <path fill="none" d="M31.96,22.28 L 61.65 34.56"/>
  <path fill="none" d="M26.83,26.62 L 26.27 27.76"/>
  <path fill="none" d="M27.43,27.25 L 26.27 27.76"/>
  <path fill="none" d="M31.96,22.28 L 26.27 27.76"/>
  <path fill="none" d="M38.62,41.75 L 39.43 42.72"/>
  <path fill="none" d="M39.43,41.45 L 39.43 42.72"/>
  <path fill="none" d="M31.96,22.28 L 39.43 42.72"/>
  <path fill="none" d="M49.98,68.36 L 48.72 68.52"/>
  <path fill="none" d="M49.79,69.21 L 48.72 68.52"/>
  <path fill="none" d="M75.35,74.66 L 48.72 68.52"/>
  <path fill="none" d="M59.54,64.08 L 58.3 63.81"/>
  <path fill="none" d="M59.07,64.81 L 58.3 63.81"/>
  <path fill="none" d="M75.35,74.66 L 58.3 63.81"/>
  <path fill="none" d="M63.7,65.6 L 62.48 65.25"/>
  <path fill="none" d="M63.18,66.31 L 62.48 65.25"/>
  <path fill="none" d="M75.35,74.66 L 62.48 65.25"/>
  <path fill="none" d="M74.43,33.09 L 75.57 33.65"/>
  <path fill="none" d="M75.05,32.49 L 75.57 33.65"/>
  <path fill="none" d="M63.78,21.47 L 75.57 33.65"/>
  <path fill="none" d="M43.94,35.44 L 43.23 36.49"/>
  <path fill="none" d="M44.45,36.14 L 43.23 36.49"/>
  <path fill="none" d="M63.78,21.47 L 43.23 36.49"/>
  <path fill="none" d="M78.56,46.88 L 79.55 47.68"/>
  <path fill="none" d="M79.31,46.43 L 79.55 47.68"/>
  <path fill="none" d="M63.78,21.47 L 79.55 47.68"/>
  <path fill="none" d="M27.69,36.66 L 28.31 37.76"/>
  <path fill="none" d="M28.55,36.52 L 28.31 37.76"/>
  <path fill="none" d="M25.96,23.49 L 28.31 37.76"/>
  <path fill="none" d="M46.81,29.28 L 48.08 29.15"/>
  <path fill="none" d="M47.03,28.44 L 48.08 29.15"/>
  <path fill="none" d="M25.96,23.49 L 48.08 29.15"/>
  <path fill="none" d="M36.65,28.04 L 37.92 28.07"/>
  <path fill="none" d="M36.96,27.23 L 37.92 28.07"/>
  <path fill="none" d="M25.96,23.49 L 37.92 28.07"/>
  <path fill="none" d="M36.36,56.34 L 35.67 55.27"/>
  <path fill="none" d="M35.51,56.53 L 35.67 55.27"/>
  <path fill="none" d="M39.43,71.54 L 35.67 55.27"/>
  <path fill="none" d="M59.49,74.16 L 60.72 73.85"/>
  <path fill="none" d="M59.58,73.29 L 60.72 73.85"/>
  <path fill="none" d="M39.43,71.54 L 60.72 73.85"/>
  <path fill="none" d="M64.77,57.79 L 65.6 56.83"/>
  <path fill="none" d="M64.35,57.03 L 65.6 56.83"/>
  <path fill="none" d="M39.43,71.54 L 65.6 56.83"/>
</g>
<g stroke="#BBBBBB" fill="#AAAAFF" id="fig-4c0ecbb199334c63bbb74cddaecd7017-element-2">
  <circle cx="81.67" cy="65.21" r="1.06"/>
  <circle cx="23.54" cy="67.36" r="1.06"/>
  <circle cx="44.52" cy="54.3" r="1.06"/>
  <circle cx="45.91" cy="43.5" r="1.06"/>
  <circle cx="30.71" cy="27.66" r="1.06"/>
  <circle cx="48.78" cy="59.46" r="1.06"/>
  <circle cx="35.52" cy="58.08" r="1.06"/>
  <circle cx="19.84" cy="64.86" r="1.06"/>
  <circle cx="81.81" cy="36.95" r="1.06"/>
  <circle cx="50.23" cy="93.13" r="1.06"/>
  <circle cx="35.12" cy="89.25" r="1.06"/>
  <circle cx="13.21" cy="67.22" r="1.06"/>
  <circle cx="79.52" cy="78.76" r="1.06"/>
  <circle cx="20.04" cy="74.24" r="1.06"/>
  <circle cx="50.37" cy="75.01" r="1.06"/>
  <circle cx="71.09" cy="47.8" r="1.06"/>
  <circle cx="64.55" cy="27.8" r="1.06"/>
  <circle cx="52.6" cy="48.08" r="1.06"/>
  <circle cx="47.69" cy="68.28" r="1.06"/>
  <circle cx="63.53" cy="40.45" r="1.06"/>
  <circle cx="48.37" cy="23.32" r="1.06"/>
  <circle cx="23.84" cy="56.04" r="1.06"/>
  <circle cx="58.51" cy="54.66" r="1.06"/>
  <circle cx="73.55" cy="51.61" r="1.06"/>
  <circle cx="69.76" cy="40.67" r="1.06"/>
  <circle cx="65.26" cy="48.27" r="1.06"/>
  <circle cx="36.76" cy="17.36" r="1.06"/>
  <circle cx="13.54" cy="53.44" r="1.06"/>
  <circle cx="62.07" cy="84.95" r="1.06"/>
  <circle cx="28.48" cy="38.81" r="1.06"/>
  <circle cx="21.96" cy="43.65" r="1.06"/>
  <circle cx="21.74" cy="81.16" r="1.06"/>
  <circle cx="74.29" cy="18.42" r="1.06"/>
  <circle cx="24.48" cy="75.96" r="1.06"/>
  <circle cx="77.22" cy="40.66" r="1.06"/>
  <circle cx="45.06" cy="47.46" r="1.06"/>
  <circle cx="57.4" cy="63.24" r="1.06"/>
  <circle cx="33.92" cy="76.9" r="1.06"/>
  <circle cx="46.1" cy="34.23" r="1.06"/>
  <circle cx="33.08" cy="43.93" r="1.06"/>
  <circle cx="61.62" cy="64.63" r="1.06"/>
  <circle cx="69.83" cy="58.47" r="1.06"/>
  <circle cx="62.63" cy="34.96" r="1.06"/>
  <circle cx="40.25" cy="66.28" r="1.06"/>
  <circle cx="18.59" cy="56.62" r="1.06"/>
  <circle cx="88.87" cy="56.64" r="1.06"/>
  <circle cx="72.94" cy="69.2" r="1.06"/>
  <circle cx="8.47" cy="61.83" r="1.06"/>
  <circle cx="48.61" cy="53.41" r="1.06"/>
  <circle cx="84.44" cy="51.28" r="1.06"/>
  <circle cx="79.61" cy="26.68" r="1.06"/>
  <circle cx="58.35" cy="27.62" r="1.06"/>
  <circle cx="59.13" cy="38.18" r="1.06"/>
  <circle cx="55.32" cy="68.65" r="1.06"/>
  <circle cx="51.9" cy="39.83" r="1.06"/>
  <circle cx="30.78" cy="65.77" r="1.06"/>
  <circle cx="53.18" cy="32.44" r="1.06"/>
  <circle cx="76.31" cy="34.41" r="1.06"/>
  <circle cx="49.1" cy="29.42" r="1.06"/>
  <circle cx="35.43" cy="54.24" r="1.06"/>
  <circle cx="56.85" cy="80.81" r="1.06"/>
  <circle cx="56.34" cy="44.73" r="1.06"/>
  <circle cx="25.9" cy="49.02" r="1.06"/>
  <circle cx="69.4" cy="33.8" r="1.06"/>
  <circle cx="38.73" cy="35.18" r="1.06"/>
  <circle cx="65.44" cy="88.3" r="1.06"/>
  <circle cx="39.98" cy="8.47" r="1.06"/>
  <circle cx="69.19" cy="71.36" r="1.06"/>
  <circle cx="93.13" cy="62.86" r="1.06"/>
  <circle cx="70.68" cy="79.7" r="1.06"/>
  <circle cx="32.6" cy="72.19" r="1.06"/>
  <circle cx="30.35" cy="58.2" r="1.06"/>
  <circle cx="77.11" cy="54.51" r="1.06"/>
  <circle cx="77.23" cy="67.31" r="1.06"/>
  <circle cx="89.99" cy="64.65" r="1.06"/>
  <circle cx="56.41" cy="21.68" r="1.06"/>
  <circle cx="49.22" cy="82.17" r="1.06"/>
  <circle cx="44.34" cy="63.51" r="1.06"/>
  <circle cx="56.22" cy="50.53" r="1.06"/>
  <circle cx="69.58" cy="64.29" r="1.06"/>
  <circle cx="12.01" cy="38.71" r="1.06"/>
  <circle cx="54.19" cy="71.34" r="1.06"/>
  <circle cx="83.87" cy="59.89" r="1.06"/>
  <circle cx="61.77" cy="73.97" r="1.06"/>
  <circle cx="42.38" cy="37.12" r="1.06"/>
  <circle cx="66.52" cy="56.31" r="1.06"/>
  <circle cx="36.72" cy="47.62" r="1.06"/>
  <circle cx="80.1" cy="48.58" r="1.06"/>
  <circle cx="25.51" cy="28.5" r="1.06"/>
  <circle cx="31.8" cy="51.53" r="1.06"/>
  <circle cx="39.8" cy="43.72" r="1.06"/>
  <circle cx="53.66" cy="9.42" r="1.06"/>
  <circle cx="76.5" cy="58.95" r="1.06"/>
  <circle cx="50.24" cy="17.85" r="1.06"/>
  <circle cx="38.9" cy="28.44" r="1.06"/>
  <circle cx="31.96" cy="22.28" r="1.06"/>
  <circle cx="75.35" cy="74.66" r="1.06"/>
  <circle cx="63.78" cy="21.47" r="1.06"/>
  <circle cx="25.96" cy="23.49" r="1.06"/>
  <circle cx="39.43" cy="71.54" r="1.06"/>
</g>
<g font-size="4" stroke="none" fill="#000000" id="fig-4c0ecbb199334c63bbb74cddaecd7017-element-3">
  <text x="81.67" y="65.21" text-anchor="middle" dy="0.35em">100</text>
  <text x="23.54" y="67.36" text-anchor="middle" dy="0.35em">99</text>
  <text x="44.52" y="54.3" text-anchor="middle" dy="0.35em">98</text>
  <text x="45.91" y="43.5" text-anchor="middle" dy="0.35em">97</text>
  <text x="30.71" y="27.66" text-anchor="middle" dy="0.35em">96</text>
  <text x="48.78" y="59.46" text-anchor="middle" dy="0.35em">95</text>
  <text x="35.52" y="58.08" text-anchor="middle" dy="0.35em">94</text>
  <text x="19.84" y="64.86" text-anchor="middle" dy="0.35em">93</text>
  <text x="81.81" y="36.95" text-anchor="middle" dy="0.35em">92</text>
  <text x="50.23" y="93.13" text-anchor="middle" dy="0.35em">91</text>
  <text x="35.12" y="89.25" text-anchor="middle" dy="0.35em">90</text>
  <text x="13.21" y="67.22" text-anchor="middle" dy="0.35em">89</text>
  <text x="79.52" y="78.76" text-anchor="middle" dy="0.35em">88</text>
  <text x="20.04" y="74.24" text-anchor="middle" dy="0.35em">87</text>
  <text x="50.37" y="75.01" text-anchor="middle" dy="0.35em">86</text>
  <text x="71.09" y="47.8" text-anchor="middle" dy="0.35em">85</text>
  <text x="64.55" y="27.8" text-anchor="middle" dy="0.35em">84</text>
  <text x="52.6" y="48.08" text-anchor="middle" dy="0.35em">83</text>
  <text x="47.69" y="68.28" text-anchor="middle" dy="0.35em">82</text>
  <text x="63.53" y="40.45" text-anchor="middle" dy="0.35em">81</text>
  <text x="48.37" y="23.32" text-anchor="middle" dy="0.35em">80</text>
  <text x="23.84" y="56.04" text-anchor="middle" dy="0.35em">79</text>
  <text x="58.51" y="54.66" text-anchor="middle" dy="0.35em">78</text>
  <text x="73.55" y="51.61" text-anchor="middle" dy="0.35em">77</text>
  <text x="69.76" y="40.67" text-anchor="middle" dy="0.35em">76</text>
  <text x="65.26" y="48.27" text-anchor="middle" dy="0.35em">75</text>
  <text x="36.76" y="17.36" text-anchor="middle" dy="0.35em">74</text>
  <text x="13.54" y="53.44" text-anchor="middle" dy="0.35em">73</text>
  <text x="62.07" y="84.95" text-anchor="middle" dy="0.35em">72</text>
  <text x="28.48" y="38.81" text-anchor="middle" dy="0.35em">71</text>
  <text x="21.96" y="43.65" text-anchor="middle" dy="0.35em">70</text>
  <text x="21.74" y="81.16" text-anchor="middle" dy="0.35em">69</text>
  <text x="74.29" y="18.42" text-anchor="middle" dy="0.35em">68</text>
  <text x="24.48" y="75.96" text-anchor="middle" dy="0.35em">67</text>
  <text x="77.22" y="40.66" text-anchor="middle" dy="0.35em">66</text>
  <text x="45.06" y="47.46" text-anchor="middle" dy="0.35em">65</text>
  <text x="57.4" y="63.24" text-anchor="middle" dy="0.35em">64</text>
  <text x="33.92" y="76.9" text-anchor="middle" dy="0.35em">63</text>
  <text x="46.1" y="34.23" text-anchor="middle" dy="0.35em">62</text>
  <text x="33.08" y="43.93" text-anchor="middle" dy="0.35em">61</text>
  <text x="61.62" y="64.63" text-anchor="middle" dy="0.35em">60</text>
  <text x="69.83" y="58.47" text-anchor="middle" dy="0.35em">59</text>
  <text x="62.63" y="34.96" text-anchor="middle" dy="0.35em">58</text>
  <text x="40.25" y="66.28" text-anchor="middle" dy="0.35em">57</text>
  <text x="18.59" y="56.62" text-anchor="middle" dy="0.35em">56</text>
  <text x="88.87" y="56.64" text-anchor="middle" dy="0.35em">55</text>
  <text x="72.94" y="69.2" text-anchor="middle" dy="0.35em">54</text>
  <text x="8.47" y="61.83" text-anchor="middle" dy="0.35em">53</text>
  <text x="48.61" y="53.41" text-anchor="middle" dy="0.35em">52</text>
  <text x="84.44" y="51.28" text-anchor="middle" dy="0.35em">51</text>
  <text x="79.61" y="26.68" text-anchor="middle" dy="0.35em">50</text>
  <text x="58.35" y="27.62" text-anchor="middle" dy="0.35em">49</text>
  <text x="59.13" y="38.18" text-anchor="middle" dy="0.35em">48</text>
  <text x="55.32" y="68.65" text-anchor="middle" dy="0.35em">47</text>
  <text x="51.9" y="39.83" text-anchor="middle" dy="0.35em">46</text>
  <text x="30.78" y="65.77" text-anchor="middle" dy="0.35em">45</text>
  <text x="53.18" y="32.44" text-anchor="middle" dy="0.35em">44</text>
  <text x="76.31" y="34.41" text-anchor="middle" dy="0.35em">43</text>
  <text x="49.1" y="29.42" text-anchor="middle" dy="0.35em">42</text>
  <text x="35.43" y="54.24" text-anchor="middle" dy="0.35em">41</text>
  <text x="56.85" y="80.81" text-anchor="middle" dy="0.35em">40</text>
  <text x="56.34" y="44.73" text-anchor="middle" dy="0.35em">39</text>
  <text x="25.9" y="49.02" text-anchor="middle" dy="0.35em">38</text>
  <text x="69.4" y="33.8" text-anchor="middle" dy="0.35em">37</text>
  <text x="38.73" y="35.18" text-anchor="middle" dy="0.35em">36</text>
  <text x="65.44" y="88.3" text-anchor="middle" dy="0.35em">35</text>
  <text x="39.98" y="8.47" text-anchor="middle" dy="0.35em">34</text>
  <text x="69.19" y="71.36" text-anchor="middle" dy="0.35em">33</text>
  <text x="93.13" y="62.86" text-anchor="middle" dy="0.35em">32</text>
  <text x="70.68" y="79.7" text-anchor="middle" dy="0.35em">31</text>
  <text x="32.6" y="72.19" text-anchor="middle" dy="0.35em">30</text>
  <text x="30.35" y="58.2" text-anchor="middle" dy="0.35em">29</text>
  <text x="77.11" y="54.51" text-anchor="middle" dy="0.35em">28</text>
  <text x="77.23" y="67.31" text-anchor="middle" dy="0.35em">27</text>
  <text x="89.99" y="64.65" text-anchor="middle" dy="0.35em">26</text>
  <text x="56.41" y="21.68" text-anchor="middle" dy="0.35em">25</text>
  <text x="49.22" y="82.17" text-anchor="middle" dy="0.35em">24</text>
  <text x="44.34" y="63.51" text-anchor="middle" dy="0.35em">23</text>
  <text x="56.22" y="50.53" text-anchor="middle" dy="0.35em">22</text>
  <text x="69.58" y="64.29" text-anchor="middle" dy="0.35em">21</text>
  <text x="12.01" y="38.71" text-anchor="middle" dy="0.35em">20</text>
  <text x="54.19" y="71.34" text-anchor="middle" dy="0.35em">19</text>
  <text x="83.87" y="59.89" text-anchor="middle" dy="0.35em">18</text>
  <text x="61.77" y="73.97" text-anchor="middle" dy="0.35em">17</text>
  <text x="42.38" y="37.12" text-anchor="middle" dy="0.35em">16</text>
  <text x="66.52" y="56.31" text-anchor="middle" dy="0.35em">15</text>
  <text x="36.72" y="47.62" text-anchor="middle" dy="0.35em">14</text>
  <text x="80.1" y="48.58" text-anchor="middle" dy="0.35em">13</text>
  <text x="25.51" y="28.5" text-anchor="middle" dy="0.35em">12</text>
  <text x="31.8" y="51.53" text-anchor="middle" dy="0.35em">11</text>
  <text x="39.8" y="43.72" text-anchor="middle" dy="0.35em">10</text>
  <text x="53.66" y="9.42" text-anchor="middle" dy="0.35em">9</text>
  <text x="76.5" y="58.95" text-anchor="middle" dy="0.35em">8</text>
  <text x="50.24" y="17.85" text-anchor="middle" dy="0.35em">7</text>
  <text x="38.9" y="28.44" text-anchor="middle" dy="0.35em">6</text>
  <text x="31.96" y="22.28" text-anchor="middle" dy="0.35em">5</text>
  <text x="75.35" y="74.66" text-anchor="middle" dy="0.35em">4</text>
  <text x="63.78" y="21.47" text-anchor="middle" dy="0.35em">3</text>
  <text x="25.96" y="23.49" text-anchor="middle" dy="0.35em">2</text>
  <text x="39.43" y="71.54" text-anchor="middle" dy="0.35em">1</text>
</g>
</svg>
